<svg width="180" height="180" viewBox="0 0 180 180" fill="none" xmlns="http://www.w3.org/2000/svg">
<path d="M17 110.245C17 103.782 19.0239 97.9716 23.0716 92.9446C27.1193 87.9176 32.2769 84.6533 38.6096 83.217C40.3071 75.5786 44.1589 69.2458 50.2305 64.4147C56.3021 59.5182 63.2877 57.1027 71.2526 57.1027C78.9563 57.1027 85.8766 59.453 91.8829 64.2188C97.9545 68.9847 101.872 75.0563 103.634 82.4989H105.397C113.101 82.4989 119.629 85.1756 125.048 90.5943C130.467 96.0131 133.209 102.542 133.209 110.18C133.209 117.884 130.467 124.412 125.048 129.831C119.629 135.25 113.101 137.992 105.397 137.992H44.8771C41.0905 137.992 37.4998 137.274 34.1049 135.772C30.71 134.271 27.6416 132.443 25.1607 129.962C22.6799 127.481 20.7213 124.478 19.2197 121.083C17.7181 117.688 17 113.967 17 110.245ZM26.4665 110.245C26.4665 115.207 28.2945 119.516 31.8199 123.041C35.3453 126.567 39.7195 128.395 44.8118 128.395H105.397C110.424 128.395 114.798 126.632 118.389 123.041C121.98 119.451 123.808 115.207 123.808 110.245C123.808 105.284 122.045 100.975 118.389 97.4494C114.798 93.9239 110.489 92.0959 105.397 92.0959H96.3224C95.6695 92.0959 95.3431 91.7695 95.3431 91.1166L94.8861 87.9176C94.2332 81.7807 91.6218 76.6231 87.1171 72.5754C82.6123 68.5277 77.2589 66.5038 71.122 66.5038C64.9851 66.5038 59.6317 68.5277 55.0617 72.6407C50.4917 76.6884 47.9455 81.846 47.3579 87.9176L46.9009 90.6596C46.9009 91.3125 46.5745 91.6389 45.8564 91.6389L42.9185 92.0959C38.2179 92.4876 34.3008 94.4462 31.1018 97.9064C28.0986 101.367 26.4665 105.48 26.4665 110.245ZM84.2445 53.3161C83.5916 53.9037 83.7222 54.3607 84.7015 54.6871C87.5088 55.9275 89.8591 57.1027 91.7524 58.2778C92.4705 58.4737 92.9928 58.4084 93.1887 58.0819C97.1711 54.3607 101.741 52.4674 107.029 52.4674C112.317 52.4674 116.822 54.2301 120.739 57.7555C124.591 61.281 126.746 65.6551 127.203 70.8127L127.79 74.991H137.061C141.304 74.991 144.96 76.4926 148.029 79.561C151.097 82.6294 152.599 86.2202 152.599 90.3985C152.599 94.3156 151.228 97.7105 148.551 100.648C145.874 103.586 142.545 105.218 138.562 105.675C137.91 105.675 137.583 106.002 137.583 106.72V114.097C137.583 114.815 137.91 115.142 138.562 115.142C145.156 114.75 150.706 112.139 155.21 107.373C159.715 102.607 162 96.9271 162 90.3985C162 83.4782 159.584 77.6024 154.688 72.7713C149.792 67.8748 143.916 65.4593 137.061 65.4593H136.081C134.384 58.9307 130.793 53.5772 125.309 49.3336C119.891 45.0901 113.754 43.0009 107.029 43.0009C97.8892 42.9356 90.2508 46.3958 84.2445 53.3161Z" fill="#999999"/>
</svg>
