<svg width="180" height="180" viewBox="0 0 180 180" fill="none" xmlns="http://www.w3.org/2000/svg">
<path d="M17 120.256C17 125.111 18.1868 129.588 20.5603 133.688C22.9338 137.787 26.1704 141.024 30.2701 143.397C34.3698 145.771 38.7932 146.958 43.5941 146.958H102.015C106.816 146.958 111.293 145.771 115.393 143.397C119.493 141.024 122.783 137.787 125.157 133.688C127.53 129.588 128.771 125.111 128.771 120.256C128.771 116.695 128.016 113.081 126.505 109.467C130.605 104.504 132.655 98.5164 132.655 91.6656C132.655 87.8356 131.9 84.1674 130.443 80.6611C128.987 77.1548 126.937 74.1879 124.401 71.6525C121.866 69.1172 118.899 67.0674 115.393 65.6109C111.887 64.1005 108.218 63.3992 104.388 63.3992C96.4048 63.3992 89.446 66.5279 83.4583 72.7854C79.3047 70.4118 74.4498 69.2251 68.8936 69.2251C61.2876 69.2251 54.5986 71.5986 48.7727 76.2917C42.9468 80.9848 39.1708 87.0264 37.5525 94.3628C31.5108 95.7653 26.6019 98.8401 22.7719 103.695C18.942 108.55 17 114.052 17 120.256ZM26.2243 120.256C26.2243 115.724 27.7347 111.84 30.7556 108.55C33.7764 105.259 37.5525 103.371 42.0837 102.832L44.7809 102.67C45.4282 102.67 45.8058 102.346 45.8058 101.699L46.1834 98.7861C46.9386 92.9602 49.474 88.0514 53.7894 84.1674C58.1049 80.2296 63.1756 78.2876 68.9475 78.2876C74.8813 78.2876 80.0599 80.2835 84.4293 84.2214C88.8527 88.1593 91.2801 93.0142 91.8196 98.8401L92.1972 101.969C92.3051 102.562 92.6827 102.886 93.33 102.886H102.015C106.762 102.886 110.862 104.612 114.314 108.064C117.766 111.517 119.493 115.563 119.493 120.31C119.493 125.218 117.766 129.372 114.368 132.824C110.969 136.277 106.816 138.003 102.069 138.003H43.5941C38.8471 138.003 34.8013 136.277 31.349 132.771C27.9505 129.264 26.2243 125.111 26.2243 120.256ZM62.3664 54.067C62.3664 55.3616 62.798 56.4944 63.6611 57.4654L67.2213 60.9178C68.5699 61.9427 69.7028 62.3743 70.6737 62.2664C71.8065 62.2664 72.7775 61.7809 73.6406 60.8639C74.5037 59.9468 74.9353 58.814 74.9353 57.5194C74.9353 56.2247 74.4498 55.1458 73.5327 54.3367L70.3501 50.7764C69.3791 49.9133 68.3002 49.4818 67.0595 49.4818C65.7649 49.4818 64.6321 49.9133 63.715 50.8304C62.798 51.6935 62.3664 52.7723 62.3664 54.067ZM91.1722 77.9639C94.8943 74.3497 99.3177 72.5696 104.388 72.5696C109.729 72.5696 114.26 74.4037 117.982 78.1258C121.704 81.8479 123.592 86.3252 123.592 91.6656C123.592 95.0101 122.675 98.3546 120.841 101.591C115.609 96.4126 109.351 93.8233 102.015 93.8233H100.289C98.9401 87.9435 95.9193 82.657 91.1722 77.9639ZM99.965 49.4818C99.965 50.8843 100.397 51.9632 101.206 52.8263C102.015 53.6894 103.094 54.067 104.388 54.067C105.791 54.067 106.87 53.6354 107.733 52.8263C108.596 51.9632 108.974 50.8843 108.974 49.4818V38.4234C108.974 37.1287 108.542 36.1038 107.679 35.2407C106.816 34.3776 105.737 34 104.388 34C103.094 34 102.069 34.4315 101.206 35.2407C100.343 36.0499 99.965 37.1287 99.965 38.4234V49.4818ZM129.742 61.8348C129.742 63.2374 130.119 64.3162 130.929 65.1793C132.061 66.0424 133.194 66.474 134.273 66.474C135.244 66.474 136.323 66.0424 137.456 65.1793L145.17 57.4654C146.033 56.4944 146.464 55.3616 146.464 54.013C146.464 52.7184 146.033 51.6395 145.17 50.7764C144.307 49.9133 143.228 49.4818 141.987 49.4818C140.692 49.4818 139.667 49.9133 138.858 50.7764L130.929 58.4903C130.119 59.5153 129.742 60.5941 129.742 61.8348ZM134.003 125.704C134.003 126.999 134.435 128.131 135.352 129.102L138.858 132.501C139.667 133.364 140.692 133.795 141.987 133.795C143.282 133.795 144.36 133.364 145.224 132.447C146.087 131.53 146.518 130.451 146.518 129.102C146.518 127.916 146.087 126.837 145.224 125.974L141.717 122.467C140.854 121.604 139.829 121.173 138.642 121.173C137.348 121.173 136.269 121.604 135.406 122.467C134.489 123.33 134.003 124.409 134.003 125.704ZM141.933 91.6656C141.933 92.9063 142.419 93.9312 143.336 94.7943C144.199 95.6574 145.331 96.0889 146.626 96.0889H157.631C158.871 96.0889 159.896 95.6574 160.759 94.8482C161.622 94.0391 162 92.9602 162 91.6656C162 90.3709 161.568 89.2921 160.759 88.429C159.95 87.5659 158.871 87.0804 157.631 87.0804H146.626C145.331 87.0804 144.253 87.5119 143.336 88.429C142.365 89.346 141.933 90.4249 141.933 91.6656Z" fill="#B3B3B3"/>
</svg>
