<svg width="180" height="180" viewBox="0 0 180 180" fill="none" xmlns="http://www.w3.org/2000/svg">
<path d="M17 104.5C17 102.862 17.5461 101.496 18.7067 100.336C19.9355 99.1751 21.3008 98.629 22.8027 98.629H36.7293C38.2994 98.629 39.5965 99.1751 40.6888 100.336C41.7128 101.496 42.2589 102.862 42.2589 104.5C42.2589 106.138 41.7128 107.504 40.6888 108.596C39.6648 109.757 38.2994 110.303 36.7293 110.303H22.871C21.3008 110.303 19.9355 109.757 18.775 108.596C17.6144 107.435 17 106.07 17 104.5ZM36.5245 57.3272C36.5245 55.7571 37.0706 54.3917 38.0946 53.1629C39.46 52.0023 40.8936 51.4562 42.4637 51.4562C43.8974 51.4562 45.2627 52.0023 46.4915 53.1629L56.2538 63.1299C57.346 64.1539 57.8922 65.5193 57.8922 67.1577C57.8922 68.7961 57.346 70.1615 56.2538 71.2537C55.1615 72.346 53.7961 72.8922 52.1577 72.8922C50.5193 72.8922 49.154 72.346 48.1299 71.2537L38.1629 61.4915C37.0706 60.331 36.5245 58.9656 36.5245 57.3272ZM37.6168 120.884C37.6168 119.382 38.1629 118.085 39.1869 117.129C40.2792 116.174 41.7128 115.628 43.556 115.628H82.5367C84.3799 115.628 85.8135 116.105 86.9058 117.129C87.9981 118.085 88.5443 119.382 88.5443 120.884C88.5443 122.727 87.9981 124.161 86.9741 125.253C85.8818 126.346 84.4482 126.892 82.5367 126.892H43.556C41.7128 126.892 40.2792 126.346 39.1869 125.322C38.0946 124.298 37.6168 122.727 37.6168 120.884ZM44.3752 141.023C44.3752 139.521 44.9896 138.156 46.2867 136.927C47.5155 135.698 48.9492 135.084 50.3828 135.084C52.1577 135.084 53.5913 135.698 54.6836 136.859C55.7759 138.088 56.322 139.453 56.322 141.023C56.322 142.935 55.7759 144.368 54.7519 145.46C53.7279 146.553 52.226 147.031 50.3828 147.031C48.8126 147.031 47.379 146.484 46.2185 145.392C44.9896 144.3 44.3752 142.798 44.3752 141.023ZM54.0009 106.48V106.002C54.2057 97.4002 57.2095 89.959 62.944 83.6101C68.6784 77.2613 75.71 73.4383 84.1069 72.073H84.4482C85.7453 71.7999 87.5202 71.6634 89.6365 71.6634C91.7528 71.6634 93.5278 71.7999 94.8249 72.073H95.0979C103.427 73.37 110.526 77.2613 116.261 83.6101C121.995 89.959 124.999 97.4002 125.204 106.002V106.48C125.204 107.572 124.658 108.118 123.634 108.118H115.919C115.1 108.118 114.554 107.913 114.213 107.504C113.871 107.094 113.735 106.685 113.735 106.275C113.462 99.9261 111.004 94.5329 106.362 90.0955C101.72 85.6582 96.1902 83.4736 89.7048 83.4736C83.2194 83.4736 77.6897 85.6582 73.0475 90.0955C68.4054 94.5329 65.9477 99.9261 65.6747 106.275C65.6747 106.685 65.4699 107.094 65.1285 107.504C64.7872 107.913 64.1728 108.118 63.3536 108.118H55.6394C54.5471 108.118 54.0009 107.572 54.0009 106.48ZM60.8959 141.023C60.8959 139.453 61.4421 138.088 62.5344 136.859C63.6266 135.698 65.0603 135.084 66.8352 135.084H92.9816C94.4835 135.084 95.8489 135.698 97.0777 136.927C98.3065 138.156 98.9892 139.521 98.9892 141.023C98.9892 142.798 98.3748 144.3 97.1459 145.392C95.9171 146.484 94.5518 147.031 92.9816 147.031H66.8352C64.992 147.031 63.5584 146.484 62.4661 145.46C61.3738 144.368 60.8959 142.935 60.8959 141.023ZM83.6973 51.7293V37.871C83.6973 36.2326 84.2434 34.8672 85.404 33.7067C86.5645 32.5461 87.9298 32 89.5683 32C91.2067 32 92.5038 32.5461 93.6643 33.7067C94.8249 34.8672 95.371 36.2326 95.371 37.871V51.7293C95.371 53.2994 94.8249 54.6648 93.6643 55.6888C92.5038 56.7128 91.1384 57.3272 89.5683 57.3272C87.9981 57.3272 86.5645 56.7811 85.4722 55.757C84.3799 54.733 83.6973 53.2994 83.6973 51.7293ZM92.9816 120.884C92.9816 119.451 93.596 118.222 94.8249 117.198C96.0537 116.174 97.419 115.628 98.9892 115.628C100.559 115.628 101.925 116.174 103.153 117.198C104.382 118.222 104.997 119.451 104.997 120.884C104.997 122.659 104.382 124.161 103.153 125.253C101.925 126.346 100.559 126.892 98.9892 126.892C97.419 126.892 95.9854 126.346 94.8249 125.253C93.596 124.093 92.9816 122.659 92.9816 120.884ZM103.495 141.023C103.495 139.453 104.041 138.088 105.133 136.859C106.226 135.698 107.727 135.084 109.502 135.084H122.2C123.975 135.084 125.409 135.698 126.501 136.859C127.593 138.088 128.139 139.453 128.139 141.023C128.139 142.935 127.593 144.368 126.569 145.46C125.545 146.553 124.043 147.031 122.2 147.031H109.502C107.659 147.031 106.226 146.484 105.133 145.46C104.041 144.368 103.495 142.935 103.495 141.023ZM109.502 120.884C109.502 119.451 110.117 118.222 111.346 117.198C112.574 116.174 113.94 115.628 115.442 115.628H136.4C137.902 115.628 139.13 116.105 140.086 117.129C141.042 118.153 141.588 119.382 141.588 120.884C141.588 122.727 141.11 124.161 140.154 125.253C139.199 126.346 137.97 126.892 136.4 126.892H115.442C113.871 126.892 112.506 126.346 111.277 125.253C110.117 124.093 109.502 122.659 109.502 120.884ZM121.381 67.1577C121.381 65.451 121.927 64.0857 122.951 63.1299L132.645 53.1629C133.874 52.0023 135.239 51.4562 136.673 51.4562C138.243 51.4562 139.608 52.0023 140.769 53.1629C141.929 54.3234 142.476 55.6888 142.476 57.3272C142.476 58.9656 141.929 60.3992 140.837 61.4915L130.87 71.1855C129.641 72.2778 128.276 72.8239 126.774 72.8239C125.204 72.8239 123.975 72.2778 122.951 71.1855C121.927 70.1615 121.381 68.7961 121.381 67.1577ZM136.809 104.5C136.809 102.93 137.355 101.564 138.448 100.336C139.608 99.1751 140.905 98.629 142.339 98.629H156.129C157.699 98.629 159.064 99.2434 160.225 100.404C161.386 101.564 162 102.93 162 104.5C162 106.07 161.386 107.435 160.225 108.596C159.064 109.757 157.699 110.303 156.129 110.303H142.339C140.769 110.303 139.403 109.757 138.379 108.596C137.355 107.435 136.809 106.138 136.809 104.5Z" fill="#FFDF80"/>
</svg>
