<svg width="180" height="180" viewBox="0 0 180 180" fill="none" xmlns="http://www.w3.org/2000/svg">
<path d="M17 104.151C17 111.299 19.4722 117.479 24.4703 122.639C29.4685 127.798 35.5415 130.539 42.7969 130.861C43.3881 130.861 43.7105 130.539 43.7105 129.948V122.746C43.7105 122.155 43.3881 121.832 42.7969 121.832C38.1749 121.617 34.2517 119.736 31.0271 116.297C27.8024 112.857 26.1901 108.773 26.1901 104.151C26.1901 99.7438 27.695 95.8743 30.7583 92.5422C33.8217 89.2101 37.5838 87.3291 42.0445 86.7916L44.8929 86.5229C45.5915 86.5229 45.9678 86.2005 45.9678 85.6093L46.344 82.7071C46.9351 76.9028 49.3536 72.0122 53.7068 68.0889C58.06 64.1656 63.1657 62.1771 69.0237 62.1771C74.8818 62.1771 79.9874 64.1656 84.3944 68.0889C88.8013 72.0122 91.2735 76.9028 91.9185 82.7071L92.2947 85.7705C92.2947 86.4154 92.6171 86.7916 93.2083 86.7916H101.915C106.698 86.7916 110.782 88.5114 114.276 91.951C117.769 95.3906 119.489 99.4213 119.489 104.151C119.489 108.826 117.877 112.857 114.652 116.297C111.427 119.736 107.504 121.564 102.936 121.832C102.291 121.832 101.915 122.155 101.915 122.746V129.948C101.915 130.539 102.237 130.861 102.936 130.861C110.084 130.646 116.157 127.905 121.155 122.746C126.153 117.533 128.625 111.352 128.625 104.205C128.625 100.335 127.873 96.7342 126.368 93.4021C130.56 88.189 132.656 82.2772 132.656 75.613C132.656 70.5074 131.366 65.7779 128.84 61.4247C126.314 57.0715 122.875 53.6319 118.521 51.106C114.168 48.58 109.493 47.3439 104.441 47.3439C96.0567 47.3439 89.1238 50.4611 83.5882 56.6953C79.1812 54.3306 74.3443 53.1482 69.0237 53.1482C61.4459 53.1482 54.6742 55.5129 48.8162 60.2424C42.9581 64.9718 39.1961 70.9911 37.53 78.3002C31.5645 79.6975 26.6738 82.8146 22.8043 87.6515C18.9348 92.4884 17 97.9703 17 104.151ZM46.0215 141.019C46.0215 141.932 46.2902 142.792 46.8814 143.652C47.4726 144.512 48.3325 145.103 49.5148 145.426C50.106 145.533 50.5897 145.641 50.9659 145.641C53.0619 145.641 54.4592 144.512 55.1042 142.201L63.5956 110.6C63.9718 109.31 63.8106 108.128 63.1657 106.999C62.5208 105.871 61.5534 105.226 60.3173 104.957C59.1349 104.581 58.0063 104.688 56.9314 105.333C55.8566 105.924 55.1041 106.838 54.7279 108.074L46.2365 139.836C46.129 140.535 46.0215 140.911 46.0215 141.019ZM60.0486 157.572C60.0486 158.593 60.3173 159.507 60.8547 160.366C61.3921 161.226 62.3058 161.764 63.6494 161.979C64.2405 162.086 64.7242 162.194 65.0467 162.194C65.9066 162.194 66.7127 161.871 67.4652 161.28C68.2176 160.635 68.7013 159.775 68.9162 158.7L81.8147 110.707C82.1371 109.471 82.0297 108.289 81.4385 107.268C80.8473 106.247 79.9337 105.494 78.7513 105.118C77.5152 104.742 76.3328 104.849 75.258 105.494C74.1831 106.086 73.4307 106.999 73.1082 108.235L60.2098 156.228C60.1023 157.034 60.0486 157.518 60.0486 157.572ZM62.3058 38.1001C62.3058 39.3899 62.7357 40.4648 63.6494 41.3784L67.1427 44.9255C68.1638 45.7316 69.2924 46.1078 70.4748 46.1078C71.6034 46.1078 72.6783 45.6779 73.5919 44.8717C74.5056 44.0118 74.9893 42.9907 74.9893 41.7009C74.9893 40.411 74.5593 39.2287 73.6994 38.2613L70.2598 34.768C69.2924 33.8543 68.2176 33.4244 67.0352 33.4244C65.7454 33.4244 64.6168 33.9081 63.7031 34.8217C62.7895 35.7353 62.3058 36.864 62.3058 38.1001ZM82.3521 141.126C82.3521 141.986 82.6208 142.846 83.1583 143.652C83.6957 144.458 84.5556 145.05 85.6305 145.372C86.2216 145.479 86.7053 145.587 86.9741 145.587C87.8877 145.587 88.8013 145.318 89.6075 144.781C90.4136 144.243 90.9511 143.384 91.2198 142.147L99.7113 110.546C100.034 109.31 99.9262 108.128 99.3351 107.107C98.7439 106.032 97.8302 105.333 96.6479 104.957C95.358 104.581 94.2294 104.688 93.1546 105.333C92.0797 105.924 91.381 106.838 91.0586 108.074L82.5671 139.836C82.4596 140.643 82.3521 141.073 82.3521 141.126ZM91.1123 61.9084C94.9281 58.3076 99.3351 56.5341 104.441 56.5341C109.708 56.5341 114.222 58.4151 117.877 62.1234C121.585 65.8317 123.412 70.3461 123.412 75.6667C123.412 78.9988 122.499 82.3309 120.618 85.6093C115.404 80.3962 109.17 77.8165 101.861 77.8165H100.087C98.6364 71.4748 95.6268 66.2079 91.1123 61.9084ZM99.8188 33.6931C99.8188 34.9292 100.249 36.0041 101.162 36.864C102.076 37.7239 103.151 38.1538 104.441 38.1538C105.677 38.1538 106.752 37.7239 107.612 36.9177C108.471 36.0578 108.901 35.0367 108.901 33.7468V22.6757C108.901 21.2784 108.471 20.1497 107.665 19.2898C106.805 18.4299 105.784 18 104.494 18C103.151 18 102.022 18.4299 101.162 19.3436C100.302 20.2572 99.8725 21.3321 99.8725 22.6757V33.6931H99.8188ZM129.539 45.9466C129.539 47.2364 130.023 48.3113 130.99 49.1175C131.742 49.9774 132.71 50.4073 133.946 50.5148C135.182 50.6223 136.311 50.1386 137.278 49.1175L145.017 41.4321C145.984 40.5185 146.414 39.3899 146.414 38.0463C146.414 36.7565 145.984 35.6279 145.071 34.768C144.157 33.9081 143.082 33.4781 141.792 33.4781C140.664 33.4781 139.643 33.9081 138.675 34.8217L130.99 42.5608C130.023 43.4744 129.539 44.603 129.539 45.9466ZM133.892 109.633C133.892 110.922 134.322 112.051 135.182 113.018L138.675 116.404C139.643 117.157 140.718 117.533 141.9 117.533L142.007 117.64C143.244 117.64 144.265 117.21 145.125 116.351C145.984 115.491 146.414 114.362 146.414 113.072C146.414 111.782 145.931 110.761 145.017 109.955L141.685 106.408C140.718 105.548 139.589 105.118 138.353 105.118C137.117 105.118 136.042 105.548 135.182 106.462C134.322 107.375 133.892 108.343 133.892 109.633ZM141.739 75.613C141.739 76.9028 142.222 77.924 143.136 78.7839C144.103 79.7512 145.178 80.1812 146.468 80.1812H157.378C158.668 80.1812 159.743 79.7512 160.656 78.8376C161.57 77.924 162 76.8491 162 75.613C162 74.3232 161.57 73.2483 160.656 72.3346C159.743 71.421 158.668 70.9373 157.378 70.9373H146.468C145.178 70.9373 144.103 71.421 143.136 72.3346C142.169 73.2483 141.739 74.3232 141.739 75.613Z" fill="#4D7399"/>
</svg>
