<svg width="180" height="180" viewBox="0 0 180 180" fill="none" xmlns="http://www.w3.org/2000/svg">
<path d="M17 103.184C17 109.195 18.7709 114.561 22.3664 119.283C25.9619 124.006 30.577 127.172 36.2117 128.728L32.6699 137.851C32.4016 138.603 32.6699 139.032 33.4212 139.032H44.8516L37.1776 161.624H38.7339L62.1314 131.251C62.346 131.036 62.346 130.768 62.2387 130.499C62.1314 130.231 61.8631 130.124 61.4874 130.124H49.735L63.0973 105.17C63.473 104.419 63.2583 103.989 62.346 103.989H46.4615C45.9785 103.989 45.5492 104.258 45.2272 104.794L39.4852 120.249C35.6214 119.283 32.4016 117.244 29.933 114.024C27.4108 110.858 26.1765 107.263 26.1765 103.184C26.1765 98.6765 27.6791 94.7591 30.6843 91.4856C33.6895 88.2121 37.4996 86.2802 42.0074 85.7435L44.7443 85.5825C45.3882 85.5825 45.7639 85.3142 45.9249 84.8312L46.3005 81.6651C46.8908 75.8693 49.3057 70.9859 53.6525 67.0685C57.9993 63.151 63.0973 61.1654 69.0004 61.1654C74.8497 61.1654 79.9478 63.151 84.3483 67.0685C88.7487 70.9859 91.2709 75.8693 91.8612 81.6651L92.2905 84.8312C92.2905 85.4215 92.6125 85.7435 93.2565 85.7435H101.896C106.672 85.7435 110.805 87.4608 114.293 90.8953C117.781 94.3297 119.498 98.4082 119.498 103.184C119.498 107.853 117.888 111.878 114.668 115.312C111.449 118.747 107.585 120.571 102.97 120.84C102.272 120.84 101.896 121.162 101.896 121.806V128.997C101.896 129.587 102.272 129.909 102.97 129.909C107.692 129.802 112.039 128.514 115.956 126.045C119.874 123.63 122.986 120.357 125.294 116.332C127.601 112.307 128.728 107.907 128.728 103.184C128.728 99.2668 127.977 95.6713 126.421 92.3442C130.499 87.1924 132.538 81.2894 132.538 74.6887C132.538 69.5907 131.251 64.8682 128.728 60.5215C126.206 56.1747 122.772 52.7402 118.425 50.218C114.078 47.6958 109.356 46.4078 104.258 46.4078C100.394 46.4078 96.6373 47.2128 92.9882 48.8227C89.339 50.4326 86.2265 52.6865 83.5433 55.5307C79.1965 53.2232 74.3668 52.0426 68.9467 52.0426C61.3264 52.0426 54.5648 54.4038 48.7154 59.1262C42.866 63.8486 39.0559 69.859 37.446 77.2109C31.4893 78.6062 26.6058 81.7187 22.742 86.5485C18.9319 91.4856 17 97.0129 17 103.184ZM59.2872 158.029C59.2872 158.941 59.5555 159.8 60.1458 160.658C60.7361 161.517 61.5947 162.107 62.7754 162.429C63.2583 162.537 63.6876 162.59 64.0633 162.59C66.3708 162.59 67.8198 161.517 68.3564 159.317L69.054 156.151C69.376 154.755 69.215 153.575 68.6247 152.501C67.9808 151.428 67.0685 150.784 65.7805 150.516C64.6536 150.14 63.5266 150.248 62.3997 150.892C61.2728 151.536 60.5751 152.448 60.1995 153.628L59.5018 156.795C59.3409 157.439 59.2872 157.868 59.2872 158.029ZM62.1314 37.2313C62.1314 38.4656 62.5607 39.5389 63.473 40.4511L66.9611 43.993C67.8198 44.8516 68.7857 45.2809 69.9127 45.3882C71.0396 45.5492 72.1129 45.1736 73.1862 44.154C74.2594 43.188 74.7961 42.0611 74.7961 40.7195C74.7961 39.4852 74.3668 38.4119 73.4545 37.4996L70.0736 33.9578C69.215 33.0992 68.1417 32.6699 66.8538 32.6699C65.5122 32.6699 64.3853 33.0992 63.473 33.9578C62.6144 34.9238 62.1314 35.997 62.1314 37.2313ZM63.5266 142.466C63.5266 143.701 63.956 144.72 64.8146 145.579C65.6732 146.437 66.7465 146.867 67.9271 146.867C69.215 146.867 70.2346 146.437 71.0933 145.632C71.9519 144.774 72.3275 143.754 72.3275 142.466C72.3275 141.232 71.8982 140.212 71.0933 139.354C70.2346 138.495 69.215 138.12 67.9271 138.12C66.6392 138.12 65.6195 138.549 64.7609 139.354C63.956 140.159 63.5266 141.232 63.5266 142.466ZM66.8538 130.285C66.8001 131.09 67.0148 131.948 67.6051 132.807C68.1417 133.665 68.9467 134.202 70.02 134.417C71.2543 134.739 72.3812 134.631 73.4545 134.095C74.5278 133.558 75.2254 132.538 75.6547 131.09L77.05 126.26C77.4256 125.079 77.3183 123.952 76.6743 122.879C76.0303 121.806 75.1181 121.108 73.8301 120.732C72.6495 120.357 71.5226 120.518 70.3956 121.162C69.2687 121.806 68.5711 122.772 68.1954 124.006L66.9611 128.836C66.9075 129.265 66.8538 129.748 66.8538 130.285ZM81.6651 141.822C81.6651 142.735 81.9334 143.593 82.47 144.398C83.0067 145.203 83.8116 145.793 84.9386 146.115C85.0996 146.115 85.3679 146.169 85.6899 146.223C86.0118 146.276 86.2802 146.33 86.4412 146.33C88.6414 146.33 89.983 145.15 90.5196 142.788L91.2709 139.568C91.6466 138.442 91.5392 137.315 90.8953 136.188C90.2513 135.061 89.339 134.363 88.1584 133.987C86.8168 133.665 85.5825 133.773 84.5092 134.417C83.436 135.061 82.6847 135.973 82.309 137.261L81.8261 140.427C81.8261 140.481 81.8261 140.695 81.7724 141.017C81.7187 141.393 81.6651 141.608 81.6651 141.822ZM85.6362 125.938C85.6362 127.172 86.0655 128.192 86.9241 128.997C87.7291 129.855 88.7487 130.285 90.0366 130.285C91.3246 130.285 92.3442 129.855 93.2028 129.05C94.0614 128.192 94.4371 127.172 94.4371 125.938C94.4371 124.65 94.0078 123.63 93.2028 122.772C92.3442 121.913 91.3246 121.537 90.0366 121.537C88.7487 121.537 87.7291 121.967 86.8705 122.772C86.0655 123.63 85.6362 124.65 85.6362 125.938ZM91.1636 61.0044C94.7591 57.5699 99.1058 55.799 104.311 55.799C109.57 55.799 114.078 57.6236 117.781 61.3264C121.484 64.9756 123.362 69.4833 123.362 74.7424C123.362 78.2842 122.503 81.5041 120.84 84.4556C115.688 79.3038 109.409 76.728 101.95 76.728H100.286C98.7302 70.342 95.6714 65.0829 91.1636 61.0044ZM99.7498 32.7235C99.7498 34.0115 100.179 35.0848 101.091 35.997C102.004 36.9093 103.077 37.3386 104.311 37.3386C105.599 37.3386 106.672 36.9093 107.531 35.997C108.39 35.0848 108.819 34.0115 108.819 32.7235V21.6688C108.819 20.3808 108.39 19.2539 107.531 18.3953C106.672 17.483 105.599 17 104.311 17C103.023 17 101.95 17.4293 101.091 18.3416C100.233 19.2539 99.7498 20.3272 99.7498 21.6151V32.7235ZM129.694 45.0126C129.694 46.3005 130.124 47.3738 130.929 48.2324C131.68 49.091 132.646 49.5204 133.88 49.6277C135.114 49.735 136.241 49.252 137.261 48.2324L144.989 40.5048C145.954 39.6462 146.384 38.5729 146.384 37.285C146.384 35.997 145.901 34.9238 144.989 34.0651C144.13 33.0992 143.057 32.6699 141.769 32.6699C140.534 32.6699 139.515 33.1528 138.656 34.0651L130.929 41.7927C130.07 42.5977 129.694 43.671 129.694 45.0126ZM133.826 108.926C133.826 110.161 134.256 111.234 135.168 112.146L138.656 115.527C139.622 116.439 140.749 116.869 141.983 116.869L142.091 116.976C143.271 116.976 144.237 116.493 144.989 115.527C145.954 114.668 146.384 113.595 146.384 112.307C146.384 111.073 145.901 110 144.989 109.034L141.661 105.707C140.695 104.741 139.622 104.258 138.388 104.258C137.1 104.258 136.027 104.741 135.168 105.653C134.309 106.565 133.826 107.692 133.826 108.926ZM141.715 74.7424C141.715 76.0303 142.198 77.1036 143.11 77.9086C143.969 78.8745 145.042 79.3038 146.33 79.3038H157.385C158.673 79.3038 159.746 78.8745 160.658 77.9622C161.571 77.05 162 75.9767 162 74.7424C162 73.5081 161.571 72.3812 160.658 71.5226C159.746 70.6639 158.673 70.2346 157.385 70.2346H146.33C145.042 70.2346 143.915 70.6639 143.057 71.5226C142.144 72.3812 141.715 73.4545 141.715 74.7424Z" fill="#508495"/>
</svg>
