<svg width="180" height="180" viewBox="0 0 180 180" fill="none" xmlns="http://www.w3.org/2000/svg">
<path d="M17 105.384C17 110.03 18.1345 114.406 20.4575 118.404C22.7265 122.402 25.8599 125.643 29.8577 128.074C33.8014 130.505 38.1773 131.802 42.8234 131.91C43.4177 131.91 43.7418 131.586 43.7418 130.991V123.806C43.7418 123.158 43.4177 122.78 42.8234 122.78C38.2314 122.564 34.2876 120.727 31.0462 117.269C27.8048 113.812 26.1841 109.868 26.1841 105.33C26.1841 100.9 27.6967 97.0104 30.7761 93.6609C33.8554 90.3655 37.5831 88.4206 42.1211 87.8804L44.9844 87.5562C45.6326 87.5562 45.9568 87.2321 45.9568 86.5298L46.389 83.7746C46.9832 77.886 49.4143 72.9698 53.7362 69.0261C58.0581 65.0823 63.1904 63.1375 69.133 63.1375C75.0216 63.1375 80.1539 65.0823 84.5298 69.0261C88.9598 72.9698 91.4449 77.832 91.9851 83.6125L92.3633 86.7459C92.3633 87.3401 92.6874 87.6643 93.2817 87.6643H101.98C106.842 87.6643 111.001 89.3931 114.459 92.8506C117.917 96.3081 119.645 100.414 119.645 105.222C119.645 109.76 118.025 113.704 114.783 117.161C111.542 120.565 107.598 122.402 103.06 122.672C102.412 122.672 102.034 122.996 102.034 123.698V130.883C102.034 131.478 102.358 131.802 103.06 131.802C110.245 131.586 116.296 128.884 121.32 123.698C126.344 118.512 128.829 112.407 128.829 105.276C128.829 101.17 128.073 97.5507 126.506 94.3092C130.558 89.285 132.719 83.3424 132.719 76.5894C132.719 71.5112 131.477 66.8111 128.937 62.4892C126.398 58.1673 122.941 54.7098 118.619 52.1706C114.297 49.6315 109.543 48.389 104.465 48.389C96.1449 48.389 89.1759 51.5223 83.5574 57.7351C79.1814 55.358 74.3193 54.1695 69.025 54.1695C61.4076 54.1695 54.7086 56.5466 48.82 61.2466C42.9314 65.9467 39.2038 71.9974 37.5291 79.2906C31.4784 80.8033 26.5622 83.9367 22.7265 88.7448C18.8908 93.6069 17 99.1173 17 105.384ZM51.2511 127.264C51.2511 128.56 51.6833 129.641 52.5477 130.559C53.4121 131.478 54.4385 131.91 55.7351 131.91C56.9776 131.91 58.0581 131.478 58.9225 130.559C59.7869 129.641 60.2191 128.56 60.2191 127.264C60.2191 126.021 59.7869 124.995 58.9225 124.13C58.0581 123.266 57.0317 122.834 55.7351 122.834C54.4925 122.834 53.4121 123.266 52.5477 124.13C51.6833 124.995 51.2511 126.075 51.2511 127.264ZM51.2511 146.874C51.2511 148.009 51.6833 149.035 52.5477 149.954C53.5201 150.818 54.5466 151.25 55.6811 151.25C56.9776 151.25 58.0041 150.818 58.8685 150.008C59.7329 149.143 60.111 148.117 60.111 146.874C60.111 145.578 59.6788 144.551 58.8145 143.687C57.9501 142.823 56.9236 142.444 55.627 142.444C54.3845 142.444 53.304 142.877 52.4396 143.687C51.6833 144.497 51.2511 145.578 51.2511 146.874ZM62.326 39.2049C62.326 40.5015 62.7582 41.582 63.6226 42.3923L67.1881 45.9579C68.0525 46.8223 69.025 47.3085 70.0514 47.3085C71.1859 47.4706 72.2664 47.0924 73.3469 46.12C74.4273 45.1475 74.9676 44.013 74.9676 42.7165C74.9676 41.4199 74.5354 40.2314 73.671 39.2589L70.2135 35.9635C69.4031 35.0451 68.3767 34.6129 67.0801 34.6129C65.7295 34.6129 64.595 35.0451 63.6766 35.9635C62.7582 36.8279 62.326 37.9083 62.326 39.2049ZM68.4307 137.636C68.4307 138.825 68.8629 139.905 69.7273 140.878C70.5917 141.742 71.6721 142.174 72.8607 142.174C74.1572 142.174 75.2377 141.742 76.1021 140.878C76.9665 140.013 77.4527 138.933 77.4527 137.636C77.4527 136.394 77.0205 135.313 76.1021 134.395C75.1837 133.476 74.1032 133.044 72.8607 133.044C71.6181 133.044 70.5917 133.476 69.7273 134.395C68.8629 135.313 68.4307 136.394 68.4307 137.636ZM68.4307 118.188C68.4307 119.43 68.8629 120.457 69.7273 121.321C70.5917 122.186 71.6721 122.618 72.8607 122.618C74.1572 122.618 75.2377 122.186 76.1021 121.321C77.0205 120.457 77.4527 119.43 77.4527 118.134C77.4527 116.891 77.0205 115.811 76.1021 114.946C75.1837 114.082 74.1032 113.65 72.8607 113.65C71.6181 113.65 70.5917 114.082 69.7273 114.946C68.8629 115.811 68.4307 116.945 68.4307 118.188ZM68.4307 157.409C68.4307 158.598 68.8629 159.624 69.7273 160.488C70.6457 161.407 71.6721 161.839 72.8607 161.839C74.1572 161.839 75.2377 161.407 76.1021 160.596C77.0205 159.732 77.4527 158.706 77.4527 157.409C77.4527 156.112 77.0205 155.032 76.1021 154.168C75.1837 153.249 74.1032 152.817 72.8607 152.817C71.6721 152.817 70.6457 153.249 69.7273 154.168C68.8629 155.086 68.4307 156.167 68.4307 157.409ZM85.8264 127.264C85.8264 128.56 86.2586 129.641 87.123 130.559C87.9873 131.478 89.0678 131.91 90.3104 131.91C91.5529 131.91 92.6334 131.478 93.4978 130.559C94.3621 129.641 94.7943 128.56 94.7943 127.264C94.7943 126.021 94.3621 124.995 93.4978 124.13C92.6334 123.266 91.6069 122.834 90.3104 122.834C89.0138 122.834 87.9873 123.266 87.123 124.13C86.2586 124.995 85.8264 126.075 85.8264 127.264ZM85.8264 146.874C85.8264 148.009 86.2586 149.035 87.0689 149.954C88.0414 150.818 89.1218 151.25 90.3104 151.25C91.6069 151.25 92.6334 150.818 93.4978 150.008C94.3621 149.143 94.7403 148.117 94.7403 146.874C94.7403 145.578 94.3081 144.551 93.4437 143.687C92.5794 142.823 91.5529 142.444 90.2563 142.444C88.9598 142.444 87.8793 142.877 87.0149 143.741C86.2586 144.551 85.8264 145.632 85.8264 146.874ZM91.1207 62.8674C94.8484 59.3018 99.2783 57.519 104.465 57.519C109.705 57.519 114.189 59.4098 117.863 63.1375C121.59 66.8651 123.427 71.4031 123.427 76.5894C123.427 79.9389 122.509 83.2884 120.672 86.5298C115.539 81.3435 109.273 78.7504 101.925 78.7504H100.197C98.576 72.4296 95.5507 67.1352 91.1207 62.8674ZM99.7645 34.6669C99.7645 35.9095 100.197 36.9899 101.115 37.8003C102.034 38.6107 103.114 39.0428 104.411 39.0428C105.707 39.0428 106.734 38.6107 107.598 37.8003C108.462 36.9359 108.841 35.9095 108.841 34.6669V23.646C108.841 22.3495 108.408 21.269 107.544 20.3506C106.68 19.4322 105.707 19 104.465 19C103.222 19 102.142 19.4862 101.223 20.4046C100.305 21.323 99.8186 22.4035 99.8186 23.646V34.6669H99.7645ZM129.586 46.9303C129.586 48.1729 130.018 49.2533 130.936 50.1177C131.747 50.9821 132.773 51.4143 133.962 51.5223C135.15 51.6304 136.285 51.1442 137.311 50.1177L145.037 42.3923C146.009 41.4199 146.441 40.3394 146.441 39.0969C146.441 37.8003 145.955 36.7198 145.037 35.8014C144.118 34.883 143.038 34.4508 141.795 34.4508C140.607 34.4508 139.58 34.883 138.662 35.8014L130.936 43.6889C130.018 44.5533 129.586 45.6338 129.586 46.9303ZM133.908 110.678C133.908 112.029 134.34 113.164 135.204 114.028L138.662 117.431C139.958 118.296 141.147 118.728 142.119 118.728C143.254 118.728 144.226 118.242 145.145 117.323C146.063 116.405 146.495 115.27 146.495 114.028C146.495 112.785 146.009 111.759 145.091 110.895L141.741 107.383C140.769 106.519 139.688 106.086 138.446 106.086C137.203 106.086 136.123 106.519 135.258 107.437C134.34 108.301 133.908 109.382 133.908 110.678ZM141.741 76.5894C141.741 77.886 142.227 78.9124 143.146 79.7768C144.064 80.7492 145.199 81.2355 146.495 81.2355H157.408C158.651 81.2355 159.731 80.8033 160.649 79.8849C161.568 78.9665 162 77.886 162 76.5894C162 75.2928 161.568 74.2124 160.649 73.348C159.731 72.4836 158.651 71.9974 157.408 71.9974H146.495C145.199 71.9974 144.118 72.4296 143.146 73.348C142.173 74.2664 141.741 75.3469 141.741 76.5894Z" fill="#98C0CD"/>
</svg>
