<svg width="180" height="180" viewBox="0 0 180 180" fill="none" xmlns="http://www.w3.org/2000/svg">
<path d="M17 104.174C17 111.36 19.5203 117.527 24.5074 122.675C29.4945 127.822 35.6076 130.557 42.7396 130.879C43.3831 130.879 43.7049 130.557 43.7049 129.967V122.782C43.7049 122.138 43.3831 121.817 42.7396 121.817C38.128 121.602 34.2134 119.725 30.9959 116.293C27.7785 112.861 26.1697 108.786 26.1697 104.174C26.1697 99.7233 27.6712 95.8624 30.7278 92.5377C33.7844 89.213 37.5381 87.3361 41.9889 86.7999L44.831 86.5854C45.5281 86.5854 45.9035 86.2637 45.9035 85.6202L46.2788 82.6708C46.8687 76.8794 49.2818 71.9996 53.6254 68.1387C57.9689 64.2241 63.0632 62.2936 68.9619 62.2936C74.807 62.2936 79.9013 64.2241 84.2984 68.1387C88.6956 72.0532 91.216 76.8794 91.8058 82.6708L92.1812 85.781C92.1812 86.4245 92.503 86.7999 93.0928 86.7999H101.78C106.553 86.7999 110.735 88.5159 114.221 91.9478C117.706 95.3798 119.476 99.4552 119.476 104.121C119.476 108.786 117.867 112.808 114.596 116.24C111.325 119.672 107.411 121.495 102.852 121.763C102.155 121.763 101.78 122.085 101.78 122.728V129.914C101.78 130.504 102.155 130.825 102.852 130.825C110.038 130.611 116.098 127.876 121.031 122.728C126.018 117.527 128.485 111.36 128.485 104.174C128.485 100.206 127.734 96.6131 126.286 93.3957C130.523 88.2478 132.614 82.2955 132.614 75.5388C132.614 70.4981 131.327 65.7792 128.807 61.4356C126.233 57.0921 122.801 53.6601 118.457 51.0862C114.114 48.5658 109.395 47.2788 104.354 47.2788C95.9885 47.2788 89.0174 50.389 83.4405 56.6631C79.1505 54.3036 74.3243 53.1239 68.9083 53.1239C61.3473 53.1239 54.5906 55.4833 48.7456 60.1487C42.9005 64.814 39.0932 70.8735 37.4308 78.22C31.4785 79.6143 26.5987 82.7245 22.7378 87.5506C18.9305 92.4841 17 98.0074 17 104.174ZM45.6354 142.033C46.1716 143.213 46.976 144.017 48.1021 144.446C49.1746 144.982 50.3007 145.036 51.4804 144.553C52.6601 144.124 53.4645 143.32 53.8935 142.14C54.4297 140.96 54.4834 139.834 54.0007 138.655C53.5717 137.528 52.7674 136.724 51.5876 136.295C50.5152 135.705 49.3891 135.652 48.2629 136.134C47.0832 136.617 46.2788 137.421 45.7426 138.655C45.2064 139.62 45.1527 140.746 45.6354 142.033ZM49.0673 126.804C49.0673 127.554 49.2282 128.251 49.5499 128.841C50.5688 130.504 52.1775 131.308 54.3225 131.308C56.0385 131.308 57.2718 130.128 58.0226 127.822L63.5995 110.555C64.0285 109.268 63.9212 108.035 63.2241 106.963C62.527 105.89 61.5618 105.193 60.2748 104.979C59.1487 104.71 58.0226 104.818 56.9501 105.354C55.8776 105.944 55.1268 106.855 54.7515 108.035L49.2282 125.302C49.1209 125.838 49.0673 126.375 49.0673 126.804ZM59.095 156.94C59.095 157.638 59.2023 158.174 59.3632 158.496C59.8458 159.675 60.6501 160.48 61.7763 160.909C62.2589 161.177 62.9024 161.284 63.6531 161.284C63.9749 161.284 64.5111 161.177 65.2618 160.962C66.4416 160.533 67.2996 159.729 67.7822 158.549C68.2648 157.369 68.3184 156.19 67.7822 155.01C67.2459 153.83 66.4416 153.026 65.3691 152.597C64.2966 152.168 63.1705 152.168 62.0444 152.597C61.0255 152.972 60.2748 153.616 59.7922 154.474C59.3095 155.332 59.095 156.19 59.095 156.94ZM62.3661 38.1627C62.3661 39.5033 62.7951 40.5758 63.6531 41.3802L67.1387 44.8657C67.9967 45.7237 68.9619 46.2064 70.0344 46.3136C71.1605 46.4745 72.233 46.0455 73.3055 45.0802C74.378 44.115 74.9142 42.9353 74.9142 41.6483C74.9142 40.3613 74.4852 39.2888 73.6272 38.4308L70.1953 34.9989C69.1764 34.0873 68.1039 33.6583 66.8706 33.6583C65.5836 33.6583 64.4575 34.0873 63.5995 34.9453C62.7951 35.8569 62.3661 36.9294 62.3661 38.1627ZM63.0096 142.516C63.0096 143.373 63.2777 144.231 63.8676 145.089C64.4575 145.947 65.3155 146.537 66.4416 146.859C67.0314 146.966 67.4604 147.074 67.7285 147.074C68.5329 147.074 69.23 146.913 69.7663 146.645C70.8388 146.216 71.5895 145.197 72.0721 143.588L81.7245 110.663C82.0998 109.376 81.9926 108.25 81.4027 107.177C80.8129 106.105 79.9549 105.408 78.7215 105.086C77.4345 104.71 76.2548 104.818 75.1823 105.408C74.1098 105.997 73.3591 106.855 72.9837 108.142L63.1169 141.336C63.0632 141.926 63.0096 142.355 63.0096 142.516ZM81.51 140.424C81.51 141.121 81.6172 141.658 81.8854 142.087C82.368 143.213 83.1723 143.963 84.2984 144.446C84.8883 144.714 85.4782 144.875 86.1753 144.875C86.497 144.875 87.0333 144.768 87.784 144.553C89.0174 144.071 89.8217 143.32 90.2507 142.194C90.6797 141.014 90.6797 139.888 90.2507 138.815C89.8217 137.743 89.071 136.939 87.9985 136.402C86.7652 135.812 85.639 135.759 84.4593 136.241C83.3332 136.724 82.4752 137.528 81.8854 138.762C81.6172 139.191 81.51 139.727 81.51 140.424ZM85.3709 126.696C85.3709 127.554 85.639 128.359 86.1753 129.109C86.7115 129.914 87.5695 130.45 88.642 130.772C89.1246 130.879 89.5536 130.933 89.9826 130.933C92.074 130.933 93.4682 129.86 94.2189 127.662L99.7422 110.609C100.171 109.376 100.01 108.196 99.3669 107.123C98.7234 106.051 97.8118 105.354 96.5784 105.032C95.2914 104.657 94.1653 104.764 93.1465 105.354C92.1276 105.944 91.4305 106.802 91.0015 108.089L85.5318 125.248C85.4782 125.946 85.3709 126.428 85.3709 126.696ZM91.1087 61.9183C94.7015 58.4863 99.1524 56.7167 104.408 56.7167C109.663 56.7167 114.114 58.5399 117.814 62.24C121.514 65.8864 123.391 70.3373 123.391 75.5924C123.391 78.9171 122.479 82.2418 120.602 85.5129C115.454 80.365 109.234 77.791 101.78 77.791H100.225C98.6161 71.5706 95.6132 66.2618 91.1087 61.9183ZM99.7959 33.6583C99.7959 34.9453 100.225 36.0177 101.136 36.9294C102.048 37.841 103.121 38.27 104.408 38.27C105.641 38.27 106.713 37.841 107.571 36.9294C108.429 36.0177 108.858 34.9453 108.858 33.6583V22.6117C108.858 21.3247 108.429 20.2522 107.571 19.3406C106.713 18.429 105.695 18 104.408 18C103.121 18 102.048 18.429 101.136 19.3406C100.225 20.2522 99.7959 21.3247 99.7959 22.6117V33.6583ZM129.557 45.9382C129.557 47.2252 129.986 48.2977 130.898 49.1557C131.702 50.0673 132.721 50.5499 134.008 50.5499C135.241 50.5499 136.368 50.0673 137.226 49.1557L144.947 41.4338C145.913 40.6294 146.395 39.5569 146.395 38.2163C146.395 36.9294 145.913 35.8569 145.001 34.9453C144.089 34.0336 142.963 33.6047 141.73 33.6047C140.55 33.6047 139.531 34.0873 138.673 35.0525L130.898 42.7208C130.04 43.5251 129.557 44.6512 129.557 45.9382ZM133.901 109.751C133.901 110.984 134.33 112.057 135.188 112.969L138.727 116.347C139.478 117.312 140.55 117.795 141.945 117.795C143.232 117.795 144.25 117.312 145.001 116.347C145.966 115.489 146.449 114.416 146.449 113.129C146.449 111.842 145.966 110.77 145.001 109.858L141.516 106.534C140.658 105.568 139.639 105.139 138.405 105.139C137.172 105.139 136.099 105.568 135.188 106.48C134.33 107.392 133.901 108.518 133.901 109.751ZM141.73 75.5924C141.73 76.8794 142.213 77.9519 143.124 78.8099C144.089 79.7751 145.162 80.2041 146.449 80.2041H157.335C158.622 80.2041 159.694 79.7751 160.606 78.8635C161.517 77.9519 162 76.8794 162 75.5924C162 74.3591 161.571 73.2866 160.659 72.4286C159.748 71.5706 158.622 71.1416 157.335 71.1416H146.449C145.108 71.1416 143.982 71.5706 143.071 72.4286C142.213 73.2866 141.73 74.3591 141.73 75.5924Z" fill="#6688AA"/>
</svg>
