<svg width="180" height="180" viewBox="0 0 180 180" fill="none" xmlns="http://www.w3.org/2000/svg">
<path d="M17 130.481C17 131.616 17.395 132.604 18.2343 133.394C19.0735 134.184 20.1103 134.579 21.3446 134.579H113.716C114.901 134.579 115.888 134.184 116.728 133.394C117.567 132.604 117.962 131.666 117.962 130.481C117.962 129.296 117.567 128.308 116.728 127.519C115.888 126.679 114.901 126.284 113.716 126.284H21.3446C20.1103 126.284 19.0735 126.679 18.2343 127.519C17.395 128.358 17 129.296 17 130.481ZM29.935 114.979C29.935 116.114 30.3299 117.101 31.1692 117.842C32.0085 118.731 32.9959 119.175 34.1314 119.175H126.552C127.688 119.175 128.675 118.78 129.465 117.941C130.255 117.101 130.65 116.114 130.65 114.979C130.65 113.843 130.255 112.856 129.514 112.066C128.725 111.276 127.787 110.881 126.602 110.881H34.1808C32.9959 110.881 32.0085 111.276 31.2186 112.066C30.3793 112.905 29.935 113.843 29.935 114.979ZM30.5768 103.13C30.5768 103.574 30.8236 103.772 31.3667 103.772H38.4266C38.7722 103.772 39.1178 103.525 39.4634 102.982C40.6483 100.414 42.3762 98.3408 44.6966 96.7116C47.017 95.0824 49.5843 94.1444 52.3984 93.9469L55.0643 93.6013C55.6074 93.6013 55.9036 93.3051 55.9036 92.7126L56.2492 90.1948C56.7923 84.8628 59.014 80.4195 63.0129 76.8155C67.0119 73.2608 71.7021 71.4341 77.1328 71.4341C82.4648 71.4341 87.1549 73.2115 91.1539 76.7661C95.1529 80.3207 97.4239 84.7147 97.967 89.9973L98.3126 92.8608C98.3126 93.4038 98.6088 93.7 99.2506 93.7H107.199C110.359 93.7 113.272 94.5393 115.888 96.2673C118.505 97.9459 120.43 100.217 121.714 103.031C122.06 103.574 122.356 103.821 122.701 103.821H129.811C130.452 103.821 130.699 103.475 130.452 102.685L129.465 99.9701C133.217 95.3293 135.044 89.8985 135.044 83.6285C135.044 80.1233 134.353 76.8155 133.02 73.6064C131.687 70.3974 129.86 67.682 127.54 65.3616C125.269 63.0412 122.504 61.2145 119.295 59.8321C116.086 58.4498 112.778 57.8573 109.223 57.8573C101.62 57.8573 95.301 60.6221 90.364 66.1515C86.1675 64.078 81.7736 63.0412 77.1328 63.0412C70.221 63.0412 64.0497 65.2135 58.6684 69.5581C53.287 73.9026 49.8311 79.4321 48.3006 86.1958C39.5128 88.5162 33.5884 93.9963 30.6261 102.735C30.5768 102.784 30.5768 102.932 30.5768 103.13ZM38.5747 145.637C38.5747 146.822 39.0191 147.81 39.9077 148.6C40.6976 149.439 41.6357 149.883 42.8206 149.883H135.34C136.476 149.883 137.463 149.488 138.302 148.649C139.142 147.81 139.537 146.822 139.537 145.637C139.537 144.502 139.142 143.564 138.302 142.774C137.463 142.033 136.476 141.638 135.34 141.638H42.8206C41.6357 141.638 40.6483 142.033 39.809 142.774C38.9697 143.564 38.5747 144.502 38.5747 145.637ZM71.0109 49.5138C71.0109 50.6987 71.4059 51.6367 72.1464 52.4266L75.3555 55.5863C76.1948 56.475 77.1328 56.9193 78.2189 56.9193C79.3051 56.9193 80.2925 56.5244 81.1811 55.6851C82.0204 54.8458 82.4648 53.8584 82.4648 52.6735C82.4648 51.4886 82.0698 50.4518 81.2305 49.5632L78.0708 46.5516C77.2809 45.7123 76.2935 45.268 75.1086 45.268C73.9237 45.268 72.9363 45.6629 72.1464 46.5022C71.4059 47.2921 71.0109 48.3289 71.0109 49.5138ZM97.2758 71.1379C100.584 67.7807 104.583 66.1515 109.273 66.1515C114.111 66.1515 118.258 67.8795 121.665 71.286C125.071 74.6926 126.799 78.8396 126.799 83.6285C126.799 86.8376 126.009 89.7998 124.38 92.5152C119.69 87.825 113.963 85.5046 107.249 85.5046H105.57C104.138 79.6789 101.374 74.89 97.2758 71.1379ZM105.175 45.3173C105.175 46.4528 105.57 47.4402 106.36 48.2302C107.15 49.0201 108.088 49.4151 109.273 49.4151C110.507 49.4151 111.544 49.0201 112.383 48.2302C113.222 47.4402 113.617 46.5022 113.617 45.3173V35.1965C113.617 34.0609 113.173 33.0735 112.334 32.2343C111.445 31.395 110.408 31 109.223 31C108.088 31 107.1 31.395 106.311 32.2343C105.521 33.0735 105.126 34.0609 105.126 35.1965V45.3173H105.175ZM132.279 56.5244C132.279 57.6105 132.674 58.6473 133.464 59.4866C135.291 61.2639 137.315 61.2639 139.537 59.4866L146.597 52.4266C147.386 51.538 147.781 50.5012 147.781 49.2669C147.781 48.1314 147.386 47.144 146.597 46.3541C145.807 45.5642 144.819 45.1692 143.684 45.1692C142.499 45.1692 141.511 45.5642 140.721 46.3541L133.513 53.6115C132.674 54.5002 132.279 55.4876 132.279 56.5244ZM136.278 114.781C136.278 115.966 136.722 116.953 137.562 117.743L140.721 120.952C141.511 121.742 142.499 122.137 143.585 122.137C144.622 122.137 145.609 121.742 146.597 120.952C147.386 120.113 147.781 119.027 147.781 117.793C147.781 116.707 147.386 115.768 146.597 115.028L143.387 111.77C142.499 110.98 141.511 110.585 140.425 110.585C139.24 110.585 138.253 110.98 137.463 111.819C136.673 112.609 136.278 113.596 136.278 114.781ZM143.585 83.6285C143.585 84.8134 144.029 85.8008 144.869 86.5908C145.609 87.43 146.597 87.825 147.781 87.825H157.902C159.038 87.825 160.025 87.43 160.815 86.5908C161.605 85.7515 162 84.7641 162 83.6285C162 82.4437 161.605 81.4563 160.815 80.6663C160.025 79.8764 159.087 79.4815 157.902 79.4815H147.781C146.597 79.4815 145.609 79.8764 144.819 80.7157C143.98 81.5056 143.585 82.493 143.585 83.6285Z" fill="#B1E8B0"/>
</svg>
