<svg width="180" height="180" viewBox="0 0 180 180" fill="none" xmlns="http://www.w3.org/2000/svg">
<path d="M17 132.16C17 133.447 17.4826 134.52 18.4479 135.378C19.3595 136.289 20.432 136.718 21.7189 136.718H53.25C54.6442 136.718 55.824 137.201 56.8964 138.22C57.9689 139.238 58.5052 140.472 58.5052 141.866C58.5052 143.26 57.9689 144.547 56.8964 145.566C55.824 146.585 54.6442 147.121 53.25 147.121C51.8558 147.121 50.676 146.585 49.6035 145.513C48.6383 144.655 47.5658 144.226 46.3325 144.226C45.0455 144.226 43.973 144.655 43.115 145.513C42.257 146.371 41.828 147.443 41.828 148.73C41.828 150.017 42.257 151.089 43.115 151.947C45.9571 154.79 49.3354 156.237 53.25 156.237C57.2182 156.237 60.5965 154.843 63.3314 152.055C66.0662 149.266 67.5141 145.888 67.5141 141.92C67.5141 137.952 66.1198 134.573 63.3314 131.785C60.5429 128.996 57.1646 127.602 53.25 127.602H21.7189C20.432 127.602 19.3595 128.031 18.3942 128.943C17.4826 129.854 17 130.927 17 132.16ZM17 116.019C17 117.253 17.4826 118.271 18.4479 119.129C19.3058 119.987 20.432 120.416 21.7189 120.416H80.5447C84.5129 120.416 87.8913 119.022 90.6797 116.234C93.4682 113.445 94.8624 110.067 94.8624 106.099C94.8624 102.131 93.4682 98.8058 90.6797 96.0174C87.8913 93.2825 84.5129 91.8883 80.5447 91.8883C76.4693 91.8883 73.1446 93.2289 70.4634 95.9637C69.6054 96.8217 69.23 97.9478 69.23 99.2348C69.23 100.522 69.659 101.594 70.4634 102.452C71.2677 103.257 72.3402 103.686 73.6808 103.686C74.9678 103.686 76.0403 103.257 77.0055 102.452C78.0244 101.433 79.2041 100.951 80.652 100.951C82.0999 100.951 83.2796 101.433 84.2984 102.452C85.3173 103.471 85.8535 104.704 85.8535 106.099C85.8535 107.547 85.3173 108.78 84.2984 109.799C83.2796 110.818 82.0462 111.354 80.652 111.354H21.7189C20.432 111.354 19.3595 111.837 18.3942 112.748C17.4826 113.713 17 114.786 17 116.019ZM48.0484 80.9489C48.0484 79.662 48.5311 78.5895 49.4427 77.6242C50.4079 76.7663 51.4804 76.3373 52.6601 76.3373H63.5459C64.7792 76.3373 65.7981 76.7663 66.6561 77.6779C67.5141 78.5895 67.8894 79.662 67.8894 80.9489C67.8894 82.2359 67.4604 83.3084 66.6561 84.1664C65.7981 85.078 64.7792 85.507 63.5459 85.507H52.6601C51.3731 85.507 50.3007 85.078 49.3891 84.1664C48.4774 83.2548 48.0484 82.1823 48.0484 80.9489ZM63.3314 43.841C63.3314 42.6076 63.7604 41.5351 64.5647 40.5699C65.5836 39.7119 66.7633 39.2829 67.9967 39.2829C69.1764 39.2829 70.2489 39.7119 71.1605 40.5699L78.8288 48.4527C79.6868 49.257 80.1158 50.3295 80.1158 51.6165C80.1158 52.9035 79.6868 53.976 78.8288 54.8339C77.9708 55.6919 76.8983 56.1209 75.6649 56.1209C74.378 56.1209 73.3055 55.6919 72.5011 54.8339L64.6183 47.1657C63.7603 46.2541 63.3314 45.1816 63.3314 43.841ZM77.0592 80.3055V79.9301C77.1664 75.0503 78.507 70.5458 81.0274 66.3632C83.6013 62.2341 86.9797 58.963 91.216 56.5499C95.4523 54.1368 100.064 52.9571 104.997 52.9571C108.751 52.9571 112.344 53.7078 115.83 55.2093C119.261 56.7108 122.264 58.6949 124.731 61.2152C127.251 63.7356 129.236 66.6849 130.683 70.1168C132.131 73.5488 132.882 77.1952 132.882 80.9489C132.882 85.9896 131.649 90.6013 129.182 94.8912C126.715 99.1812 123.337 102.56 119.101 105.026C114.864 107.547 110.199 108.78 105.158 108.834H104.032C103.657 108.834 103.335 108.726 103.121 108.458C102.852 108.19 102.745 107.868 102.745 107.493V100.951C102.745 100.254 103.121 99.8783 103.925 99.8783H105.212C110.36 99.8247 114.811 98.0015 118.457 94.2478C122.104 90.5477 123.98 86.0969 123.98 80.8953C123.98 75.7474 122.104 71.3502 118.403 67.6501C114.703 64.0037 110.253 62.1805 104.997 62.1805C99.9567 62.1805 95.5595 63.8964 91.9131 67.4356C88.2666 70.9212 86.3362 75.1575 86.1217 80.1446C86.1217 80.4663 85.9608 80.7344 85.6927 81.0562C85.4246 81.3779 84.9419 81.5388 84.2984 81.5388H78.2389C77.4345 81.5924 77.0592 81.1634 77.0592 80.3055ZM100.386 133.286V122.615C100.386 121.328 100.815 120.256 101.726 119.398C102.638 118.54 103.71 118.111 104.944 118.111C106.284 118.111 107.357 118.54 108.215 119.398C109.073 120.256 109.502 121.328 109.502 122.615V133.286C109.502 134.573 109.073 135.699 108.161 136.611C107.25 137.523 106.177 137.952 104.944 137.952C103.657 137.952 102.584 137.523 101.726 136.611C100.868 135.699 100.386 134.573 100.386 133.286ZM100.386 39.551V28.5581C100.386 27.3247 100.815 26.2522 101.726 25.3406C102.638 24.429 103.71 24 104.944 24C106.231 24 107.303 24.429 108.161 25.3406C109.019 26.2522 109.502 27.3247 109.502 28.5581V39.4974C109.502 40.7308 109.073 41.7496 108.161 42.6076C107.25 43.412 106.177 43.841 104.944 43.841C103.657 43.841 102.584 43.412 101.726 42.6076C100.868 41.8032 100.386 40.7844 100.386 39.551ZM130.04 110.228C130.04 108.994 130.469 107.976 131.273 107.225C132.078 106.367 133.097 105.991 134.33 105.991C135.617 105.991 136.689 106.42 137.547 107.225L145.323 114.839C146.181 115.751 146.61 116.877 146.61 118.111C146.61 119.344 146.181 120.416 145.323 121.274C143.178 122.937 141.033 122.937 138.888 121.274L131.273 113.606C130.415 112.748 130.04 111.568 130.04 110.228ZM130.04 51.6165C130.04 50.2759 130.469 49.2034 131.273 48.4527L138.888 40.5699C139.853 39.7119 140.872 39.2829 142.052 39.2829C143.285 39.2829 144.358 39.7119 145.269 40.6235C146.181 41.5351 146.61 42.6076 146.61 43.841C146.61 45.1816 146.181 46.3077 145.323 47.1657L137.547 54.8339C136.582 55.6919 135.51 56.1209 134.33 56.1209C133.097 56.1209 132.131 55.6919 131.273 54.8339C130.415 53.976 130.04 52.9035 130.04 51.6165ZM142.159 80.9489C142.159 79.662 142.588 78.5895 143.446 77.6242C144.304 76.7663 145.323 76.3373 146.503 76.3373H157.335C158.568 76.3373 159.641 76.8199 160.606 77.7315C161.571 78.6431 162 79.7156 162 80.9489C162 82.1823 161.517 83.2548 160.606 84.1664C159.641 85.078 158.568 85.507 157.335 85.507H146.503C145.269 85.507 144.25 85.078 143.392 84.1664C142.534 83.3084 142.159 82.2359 142.159 80.9489Z" fill="#8ED98C"/>
</svg>
