<svg width="180" height="180" viewBox="0 0 180 180" fill="none" xmlns="http://www.w3.org/2000/svg">
<path d="M17 104.247C17 110.219 18.7755 115.492 22.2727 120.173C25.7699 124.853 30.397 128.028 36.1002 129.75L32.6568 138.896C32.4416 139.649 32.6568 140.026 33.41 140.026H44.8701L38.1447 161.278H39.705L62.141 132.278C62.3562 132.063 62.3562 131.794 62.1948 131.525C62.0872 131.256 61.8182 131.148 61.4416 131.148H49.7662L63.0557 106.237C63.4323 105.484 63.1633 105.054 62.3024 105.054H46.4842C46 105.054 45.5696 105.323 45.2468 105.807L39.4898 121.302C35.6698 120.334 32.4954 118.236 29.9666 115.061C27.4378 111.887 26.2004 108.282 26.2004 104.247C26.2004 99.7811 27.7069 95.9072 30.7737 92.5714C33.8404 89.2356 37.6067 87.3525 42.0724 86.8145L44.8701 86.4916C45.5696 86.4916 45.9462 86.1688 45.9462 85.5232L46.269 82.7792C46.8609 76.9685 49.3358 72.0723 53.6939 68.1447C58.052 64.2171 63.2171 62.2263 69.0816 62.2263C74.9462 62.2263 80.0575 64.2171 84.4156 68.1447C88.7737 72.0723 91.3024 76.9685 91.9481 82.7792L92.2709 85.8998C92.2709 86.4916 92.5937 86.8145 93.2393 86.8145H101.902C106.798 86.8145 110.941 88.5362 114.384 91.9258C117.827 95.3154 119.549 99.4044 119.549 104.247C119.549 108.82 117.935 112.801 114.761 116.137C111.586 119.473 107.659 121.356 102.978 121.733C102.278 121.733 101.902 122.056 101.902 122.701V130.072C101.902 130.664 102.278 130.987 102.978 130.987C110.134 130.772 116.213 128.028 121.217 122.863C126.221 117.698 128.696 111.51 128.696 104.301C128.696 100.319 127.942 96.7143 126.382 93.4861C130.633 88.321 132.731 82.4026 132.731 75.6234C132.731 70.5659 131.44 65.885 128.911 61.5269C126.382 57.1688 122.939 53.7254 118.581 51.1967C114.223 48.6679 109.542 47.3766 104.484 47.3766C96.1985 47.3766 89.2041 50.4972 83.6085 56.6846C79.2505 54.3711 74.4082 53.1874 69.0816 53.1874C61.4954 53.1874 54.7161 55.5547 48.8516 60.2356C42.987 64.9165 39.2208 70.9425 37.5529 78.3135C31.5807 79.7124 26.6846 82.7792 22.8646 87.6215C19.0445 92.4638 17 98.0594 17 104.247ZM60.5269 155.79C60.4731 156.597 60.6883 157.404 61.2801 158.158C61.872 158.911 62.679 159.503 63.7551 159.933C64.1317 160.041 64.5084 160.095 64.885 160.095C65.7996 160.095 66.7143 159.826 67.6289 159.288C68.5436 158.75 69.1354 157.889 69.4583 156.759L81.7792 110.649C82.1021 109.412 81.9944 108.228 81.4026 107.206C80.8108 106.13 79.9499 105.43 78.7662 105.054C77.5288 104.677 76.3451 104.785 75.269 105.43C74.193 106.022 73.4397 106.937 73.1169 108.174L60.6883 154.445C60.5807 154.822 60.5269 155.306 60.5269 155.79ZM62.3024 38.2301C62.3024 39.5213 62.7328 40.5436 63.6475 41.4044L67.0909 44.9555C68.0056 45.8701 69.0816 46.3006 70.3729 46.3544C71.6642 46.3544 72.6865 45.9239 73.4397 44.9555C74.462 44.1484 74.9462 43.0724 74.9462 41.7273C74.9462 40.436 74.5158 39.4137 73.6011 38.5529L70.2115 35.0019C69.2968 34.141 68.167 33.7106 66.9295 33.7106C65.5844 33.7106 64.4545 34.141 63.5937 35.0019C62.7328 35.8627 62.3024 36.9388 62.3024 38.2301ZM82.9091 139.38C82.9091 140.026 83.1243 140.672 83.5009 141.425C84.2004 142.501 85.0612 143.254 86.1911 143.738C86.5677 143.9 87.1058 144.007 87.8052 144.007C88.6122 144.007 89.2041 143.9 89.5807 143.685C90.6568 143.254 91.41 142.178 91.7866 140.564L99.8033 110.703C100.126 109.412 100.019 108.282 99.4267 107.206C98.8349 106.184 97.9202 105.484 96.6827 105.108C95.4453 104.731 94.2616 104.839 93.2393 105.484C92.1633 106.076 91.4638 106.991 91.141 108.228L83.0705 138.143C83.0705 138.25 83.0167 138.466 82.9629 138.735C82.9091 139.057 82.9091 139.219 82.9091 139.38ZM91.141 61.9573C94.7458 58.5139 99.1577 56.7384 104.484 56.7384C109.703 56.7384 114.223 58.5677 117.935 62.2263C121.648 65.885 123.531 70.3506 123.531 75.5696C123.531 78.9054 122.616 82.2412 120.733 85.5232C115.406 80.2505 109.111 77.6141 101.902 77.6141H100.234C98.5659 71.3191 95.4991 66.1002 91.141 61.9573ZM99.8033 33.7106C99.8033 34.9481 100.288 36.0241 101.202 36.9388C102.117 37.8534 103.193 38.3377 104.43 38.3377C105.722 38.3377 106.744 37.9072 107.605 36.9926C108.466 36.0779 108.842 35.0019 108.842 33.7106V22.6271C108.842 21.3358 108.412 20.2597 107.605 19.3451C106.798 18.4304 105.722 18 104.43 18C103.193 18 102.117 18.4304 101.202 19.3451C100.288 20.2597 99.8033 21.3358 99.8033 22.6271V33.7106ZM129.557 45.9777C129.557 47.269 130.041 48.3451 130.955 49.2059C131.709 50.1206 132.731 50.551 134.022 50.551C135.314 50.551 136.39 50.1206 137.25 49.2059L144.998 41.4044C145.913 40.5436 146.397 39.5213 146.397 38.2301C146.397 36.9388 145.967 35.8627 145.052 34.9481C144.137 34.0334 143.061 33.603 141.77 33.603C140.586 33.603 139.564 34.0872 138.703 35.0019L130.955 42.7495C130.041 43.6104 129.557 44.6865 129.557 45.9777ZM133.915 109.788C133.915 110.972 134.345 112.048 135.206 113.017L138.757 116.406C139.403 117.16 140.425 117.644 141.662 117.698L141.716 117.751C141.77 117.751 141.878 117.751 141.985 117.751C142.093 117.751 142.147 117.751 142.254 117.751C143.276 117.751 144.191 117.267 145.106 116.352C146.02 115.492 146.505 114.416 146.505 113.124C146.505 111.887 146.02 110.811 145.106 109.842L141.609 106.56C140.748 105.592 139.672 105.108 138.488 105.108C137.25 105.108 136.174 105.538 135.26 106.453C134.345 107.421 133.915 108.551 133.915 109.788ZM141.716 75.6234C141.716 76.8608 142.2 77.9369 143.169 78.8516C144.137 79.82 145.213 80.3043 146.451 80.3043H157.373C158.61 80.3043 159.686 79.82 160.601 78.9054C161.516 77.9907 162 76.8608 162 75.6234C162 74.3859 161.57 73.3098 160.655 72.449C159.74 71.5881 158.664 71.1577 157.373 71.1577H146.451C145.106 71.1577 143.976 71.5881 143.061 72.449C142.147 73.3098 141.716 74.3859 141.716 75.6234Z" fill="#3E5974"/>
</svg>
