<svg width="180" height="180" viewBox="0 0 180 180" fill="none" xmlns="http://www.w3.org/2000/svg">
<path d="M17 89.5C17 87.8615 17.5461 86.4279 18.7067 85.2674C19.8672 84.1751 21.3008 83.629 22.8027 83.629H36.7293C38.2994 83.629 39.5965 84.1751 40.6888 85.3357C41.7128 86.4962 42.2589 87.8615 42.2589 89.5C42.2589 91.1384 41.7811 92.5037 40.7571 93.6643C39.733 94.8248 38.3677 95.371 36.7976 95.371H22.871C21.3008 95.371 19.9355 94.8248 18.775 93.6643C17.6144 92.5037 17 91.1384 17 89.5ZM36.5245 136.809C36.5245 135.239 37.0706 133.874 38.0946 132.645L48.1299 122.883C49.154 121.79 50.5193 121.313 52.1577 121.313C53.7961 121.313 55.1615 121.859 56.2538 122.883C57.346 123.907 57.8922 125.204 57.8922 126.774C57.8922 128.412 57.346 129.914 56.2538 131.143L46.5598 140.837C43.7608 143.022 40.9619 143.022 38.1629 140.837C37.0706 139.745 36.5245 138.379 36.5245 136.809ZM36.5245 42.3272C36.5245 40.757 37.0706 39.3917 38.0946 38.1629C39.46 37.0023 40.8936 36.4562 42.4637 36.4562C43.9656 36.4562 45.331 37.0023 46.4915 38.0946L56.2538 48.1299C57.346 49.1539 57.8922 50.5193 57.8922 52.1577C57.8922 53.7961 57.346 55.1615 56.2538 56.2537C55.1615 57.346 53.7961 57.8922 52.1577 57.8922C50.5193 57.8922 49.154 57.346 48.1299 56.2537L38.1629 46.4915C37.0706 45.3992 36.5245 43.9656 36.5245 42.3272ZM53.9327 89.5C53.9327 83.1511 55.5028 77.2118 58.7114 71.7504C61.92 66.2891 66.2208 61.9199 71.7505 58.7114C77.2801 55.5028 83.1511 53.9327 89.5 53.9327C94.2787 53.9327 98.8526 54.8884 103.29 56.7999C107.659 58.7114 111.482 61.2373 114.622 64.4458C117.831 67.6544 120.357 71.4091 122.2 75.7782C124.043 80.1473 124.999 84.7895 124.999 89.5682C124.999 95.9854 123.429 101.925 120.22 107.386C117.012 112.847 112.711 117.148 107.25 120.357C101.788 123.565 95.8489 125.136 89.4317 125.136C83.0146 125.136 77.0753 123.565 71.6139 120.357C66.1525 117.148 61.8517 112.847 58.6431 107.386C55.5711 101.856 53.9327 95.9171 53.9327 89.5ZM65.5381 89.5C65.5381 96.1902 67.8592 101.856 72.5697 106.567C77.2119 111.277 82.8781 113.667 89.5683 113.667C96.2585 113.667 101.925 111.277 106.635 106.567C111.346 101.856 113.735 96.1902 113.735 89.5C113.735 82.9463 111.346 77.3484 106.635 72.6379C101.925 67.9957 96.2585 65.6746 89.5683 65.6746C82.9463 65.6746 77.2801 67.9957 72.6379 72.6379C67.8592 77.3484 65.5381 82.9463 65.5381 89.5ZM83.6973 142.612C83.6973 140.974 84.2434 139.608 85.404 138.516C86.5645 137.424 87.9298 136.878 89.5 136.878C91.1384 136.878 92.572 137.424 93.6643 138.516C94.7566 139.608 95.3027 140.974 95.3027 142.612V156.197C95.3027 157.836 94.7566 159.269 93.596 160.43C92.4355 161.59 91.0701 162.136 89.5 162.136C87.9298 162.136 86.4962 161.59 85.404 160.43C84.2434 159.269 83.6973 157.836 83.6973 156.197V142.612ZM83.6973 36.7975V22.871C83.6973 21.3008 84.2434 19.9355 85.404 18.775C86.5645 17.6144 87.9298 17 89.5683 17C91.2067 17 92.5038 17.5461 93.6643 18.7067C94.8249 19.8672 95.371 21.2326 95.371 22.8027V36.7975C95.371 38.3677 94.8249 39.6648 93.6643 40.757C92.5038 41.8493 91.1384 42.3272 89.5683 42.3272C87.9981 42.3272 86.5645 41.7811 85.4722 40.757C84.3799 39.733 83.6973 38.3677 83.6973 36.7975ZM121.381 126.774C121.381 125.204 121.927 123.907 122.951 122.951C123.975 121.859 125.272 121.381 126.774 121.381C128.412 121.381 129.778 121.927 130.87 122.951L140.837 132.713C141.929 133.874 142.476 135.307 142.476 136.878C142.476 138.448 141.929 139.813 140.837 140.905C138.106 143.022 135.376 143.022 132.645 140.905L122.951 131.211C121.927 129.983 121.381 128.549 121.381 126.774ZM121.381 52.226C121.381 50.5193 121.927 49.1539 122.951 48.1982L132.645 38.1629C133.806 37.0706 135.171 36.5245 136.673 36.5245C138.311 36.5245 139.677 37.0706 140.769 38.2312C141.929 39.3917 142.476 40.757 142.476 42.3272C142.476 44.0339 141.929 45.4675 140.837 46.5598L130.87 56.322C129.641 57.4143 128.276 57.9604 126.774 57.9604C125.204 57.9604 123.975 57.4143 122.951 56.322C121.927 55.2297 121.381 53.8644 121.381 52.226ZM136.809 89.5C136.809 87.8615 137.355 86.4962 138.448 85.2674C139.54 84.1751 140.837 83.629 142.339 83.629H156.129C157.699 83.629 159.064 84.2434 160.225 85.4039C161.386 86.5645 162 87.9298 162 89.5C162 91.0701 161.386 92.4355 160.225 93.596C159.064 94.7566 157.699 95.3027 156.129 95.3027H142.339C140.769 95.3027 139.403 94.7566 138.379 93.596C137.355 92.4355 136.809 91.1384 136.809 89.5Z" fill="#F9C806"/>
</svg>
