<svg width="180" height="180" viewBox="0 0 180 180" fill="none" xmlns="http://www.w3.org/2000/svg">
<path d="M17 114.168C17 118.868 18.1345 123.244 20.4575 127.242C22.7265 131.294 25.8599 134.535 29.8037 136.966C33.7474 139.397 38.0693 140.694 42.7694 140.91C43.4177 140.91 43.7418 140.586 43.7418 139.991V132.806C43.7418 132.158 43.4177 131.78 42.7694 131.78C38.1773 131.564 34.2336 129.727 30.9922 126.269C27.7507 122.812 26.13 118.814 26.13 114.114C26.13 109.684 27.6427 105.794 30.668 102.499C33.6934 99.2034 37.475 97.3126 41.959 96.7724L44.7683 96.6103C45.4165 96.6103 45.7947 96.2861 45.7947 95.6379L46.2269 92.7206C46.8212 86.886 49.2522 82.0238 53.5741 78.0801C57.8961 74.1364 63.0283 72.1915 68.9709 72.1915C74.7515 72.1915 79.8838 74.1364 84.3137 78.0801C88.7437 82.0238 91.2288 86.886 91.877 92.6665L92.2552 95.7999C92.2552 96.3942 92.5794 96.7183 93.1736 96.7183H101.925C106.68 96.7183 110.839 98.4471 114.297 101.905C117.808 105.362 119.537 109.414 119.537 114.114C119.537 118.76 117.917 122.812 114.675 126.269C111.434 129.673 107.49 131.51 102.898 131.78C102.25 131.78 101.925 132.104 101.925 132.806V139.991C101.925 140.586 102.25 140.91 102.898 140.91C107.598 140.802 111.92 139.505 115.864 137.02C119.807 134.535 122.941 131.348 125.21 127.296C127.479 123.244 128.613 118.868 128.613 114.168C128.613 110.17 127.857 106.605 126.398 103.363C130.612 98.231 132.665 92.2884 132.665 85.5354C132.665 80.4572 131.423 75.7031 128.883 71.3811C126.344 67.0592 122.941 63.6017 118.619 61.1166C114.297 58.5775 109.597 57.3349 104.519 57.3349C96.1449 57.3349 89.1759 60.4683 83.6114 66.6811C79.1814 64.304 74.3193 63.1155 69.079 63.1155C61.4616 63.1155 54.7627 65.4925 48.8741 70.1926C42.9855 74.8927 39.2578 80.9434 37.5831 88.2366C31.6405 89.6412 26.7243 92.7746 22.8886 97.5827C18.8908 102.499 17 108.009 17 114.168ZM48.8741 118.922C48.8741 120.975 49.6304 122.758 51.1431 124.216C52.6557 125.675 54.4925 126.377 56.5995 126.377C58.7604 126.377 60.5432 125.675 62.0019 124.216C63.4605 122.758 64.1628 121.029 64.1628 118.922C64.1628 117.626 63.5145 115.789 62.272 113.52C61.0294 111.197 59.8409 109.414 58.7604 108.171C57.6259 106.983 56.8696 106.173 56.5995 105.902L54.6546 108.063C53.196 109.63 51.8454 111.467 50.6569 113.628C49.4683 115.789 48.8741 117.572 48.8741 118.922ZM62.326 48.0969C62.326 49.5015 62.7582 50.582 63.6226 51.3923L67.1341 54.9579C69.4031 56.6326 71.5641 56.6326 73.671 54.9579C74.5354 53.9314 74.9676 52.7429 74.9676 51.5004C74.9676 50.2578 74.5354 49.1773 73.671 48.313L70.2135 44.8014C69.187 43.883 68.1066 43.4508 66.918 43.4508C65.6215 43.4508 64.487 43.883 63.6226 44.8014C62.7582 45.7198 62.326 46.8003 62.326 48.0969ZM64.9191 140.316C64.9191 143.881 66.1617 146.852 68.5928 149.229C71.0238 151.607 73.9952 152.849 77.5067 152.849C81.0183 152.849 83.9896 151.607 86.4747 149.175C88.9598 146.69 90.1483 143.773 90.1483 140.316C90.1483 137.398 88.6896 133.887 85.7724 129.673C83.2873 126.377 80.9642 123.73 78.8573 121.623C78.4251 121.299 77.9389 120.921 77.4527 120.381L76.2101 121.623C74.2653 123.352 71.9963 126.053 69.3491 129.565C66.4318 133.671 64.9191 137.236 64.9191 140.316ZM72.9147 104.552C72.9147 105.902 73.4549 107.091 74.4814 108.063C75.5078 109.036 76.7504 109.522 78.209 109.522C79.6136 109.522 80.8022 109.036 81.7746 108.063C82.747 107.091 83.2332 105.902 83.2332 104.552C83.2332 102.337 81.5585 99.4195 78.209 95.908L76.9124 97.2586C75.94 98.339 75.0216 99.5816 74.2113 101.04C73.2928 102.499 72.9147 103.633 72.9147 104.552ZM91.1207 71.8674C94.6863 68.3018 99.1162 66.519 104.465 66.519C109.759 66.519 114.189 68.3558 117.917 72.0835C121.59 75.8111 123.481 80.2951 123.481 85.5894C123.481 88.7768 122.563 92.0723 120.672 95.5298C115.431 90.3435 109.165 87.7504 101.925 87.7504H100.143C98.576 81.4836 95.5507 76.1893 91.1207 71.8674ZM99.7645 43.4508C99.7645 44.7474 100.251 45.8279 101.169 46.7463C102.088 47.6647 103.168 48.0969 104.411 48.0969C105.653 48.0969 106.734 47.6647 107.544 46.7463C108.408 45.8279 108.787 44.7474 108.787 43.4508V32.43C108.787 31.1334 108.354 30.1069 107.544 29.2425C106.734 28.3782 105.707 28 104.465 28C103.222 28 102.088 28.4322 101.169 29.2425C100.251 30.0529 99.7645 31.1334 99.7645 32.43V43.4508ZM129.586 55.9303C129.586 57.2269 130.018 58.3074 130.936 59.1177C131.855 59.9821 132.881 60.4143 133.962 60.4143C134.88 60.4143 136.015 59.9821 137.257 59.1177L144.982 51.3923C145.955 50.4199 146.441 49.2854 146.441 48.0428C146.441 46.7463 146.009 45.6118 145.091 44.7474C144.172 43.883 143.092 43.4508 141.795 43.4508C140.607 43.4508 139.58 43.883 138.662 44.8014L130.936 52.5268C130.018 53.4452 129.586 54.5797 129.586 55.9303ZM133.908 119.57C133.908 120.921 134.34 122.056 135.15 123.028L138.662 126.161C139.418 127.134 140.499 127.62 141.849 127.62C143.146 127.62 144.226 127.134 144.982 126.161C145.955 125.297 146.441 124.216 146.441 123.028C146.441 121.839 145.955 120.813 144.982 119.895L141.687 116.383C140.715 115.519 139.634 115.086 138.392 115.086C137.095 115.086 136.015 115.519 135.15 116.383C134.286 117.247 133.908 118.328 133.908 119.57ZM141.741 85.5894C141.741 86.7779 142.173 87.8584 143.092 88.7228C144.01 89.5872 145.145 90.0194 146.495 90.0194H157.408C158.705 90.0194 159.785 89.5872 160.649 88.7228C161.568 87.8584 162 86.832 162 85.5354C162 84.2388 161.568 83.1583 160.649 82.294C159.731 81.4296 158.651 80.9434 157.408 80.9434H146.495C145.199 80.9434 144.118 81.3756 143.146 82.294C142.173 83.2124 141.741 84.3469 141.741 85.5894Z" fill="#7098C2"/>
</svg>
