<svg width="180" height="180" viewBox="0 0 180 180" fill="none" xmlns="http://www.w3.org/2000/svg">
<path d="M17 97.4167C17 99.0596 17.5476 100.398 18.7037 101.494C19.8598 102.589 21.3202 103.076 23.0848 103.076H33.368C35.0109 103.076 36.4104 102.528 37.5665 101.433C38.7226 100.337 39.3311 98.9988 39.3311 97.4167C39.3311 95.6522 38.7835 94.1918 37.6274 93.0966C36.4713 92.0013 35.0718 91.3928 33.4289 91.3928H23.0848C21.3202 91.3928 19.8598 91.9404 18.7037 93.0966C17.5476 94.131 17 95.5913 17 97.4167ZM27.77 135.021C27.77 140.923 29.8997 146.034 34.2199 150.354C38.5401 154.674 43.5904 156.804 49.4927 156.804H91.2342C97.1364 156.804 102.187 154.674 106.385 150.415C110.584 146.156 112.713 141.045 112.713 135.021C112.713 132.1 112.287 129.605 111.436 127.536C116.486 124.311 120.502 119.991 123.423 114.637C126.343 109.282 127.864 103.502 127.864 97.3559C127.864 92.4272 126.891 87.6811 124.944 83.1784C122.997 78.6756 120.38 74.7814 117.155 71.5565C113.93 68.3315 110.036 65.7151 105.533 63.768C101.031 61.8208 96.3454 60.8473 91.4167 60.8473C84.7843 60.8473 78.6387 62.4902 73.0407 65.7759C67.4427 69.0617 63.0008 73.5036 59.7759 79.0407C56.551 84.6387 54.9689 90.7235 54.9689 97.3559V99.4247C48.8842 102.893 44.8682 107.943 42.9211 114.576C38.2967 116.036 34.6458 118.592 31.9077 122.303C29.1695 126.015 27.77 130.274 27.77 135.021ZM37.2623 48.8603C37.2623 50.564 37.8099 51.9635 38.8443 52.9371L48.6408 63.2203C51.5006 65.4108 54.3605 65.4108 57.2203 63.2203C58.3764 62.0642 58.924 60.6647 58.924 58.961C58.924 57.3181 58.3764 55.9186 57.2203 54.7017L47.1804 44.6618C45.9026 43.5057 44.4423 42.8972 42.9211 42.8972C41.2174 42.8972 39.8179 43.4448 38.7835 44.6009C37.7491 45.757 37.2623 47.1565 37.2623 48.8603ZM39.8179 135.021C39.8179 132.465 40.6089 130.274 42.2518 128.449C43.8947 126.624 45.9635 125.589 48.4582 125.346L52.2308 124.859C53.0218 124.859 53.4478 124.372 53.4478 123.46L53.9954 120.052C54.4213 116.523 55.8817 113.602 58.4373 111.29C60.9929 108.917 63.9744 107.761 67.4427 107.761C70.9719 107.761 74.0751 108.917 76.6307 111.29C79.2472 113.663 80.7684 116.584 81.1943 120.052L81.6811 124.007C82.0462 124.92 82.5329 125.407 83.1414 125.407H91.1733C93.7898 125.407 96.0411 126.38 97.9882 128.267C99.9354 130.153 100.848 132.404 100.848 135.081C100.848 137.82 99.8745 140.132 97.9882 142.079C96.102 144.026 93.7898 145 91.1733 145H49.4927C46.7545 145 44.4423 144.026 42.6169 142.079C40.7306 140.132 39.8179 137.759 39.8179 135.021ZM66.7125 96.1389C67.1385 89.5065 69.6941 83.9085 74.4402 79.345C79.1255 74.8422 84.8452 72.53 91.4167 72.53C98.1708 72.53 103.951 74.9639 108.697 79.7709C113.444 84.5779 115.817 90.4801 115.817 97.3559C115.817 101.615 114.782 105.57 112.713 109.221C110.645 112.872 107.846 115.793 104.316 118.044C100.726 115.063 96.5888 113.602 91.9643 113.602C90.1997 108.248 87.0357 104.049 82.5938 100.885C78.1519 97.721 73.1016 96.1389 67.5036 96.1389H66.7125ZM85.5145 42.8972C85.5145 44.5401 86.123 46.0004 87.2791 47.1565C88.4352 48.3126 89.8347 48.9211 91.4775 48.9211C93.1813 48.9211 94.5808 48.3126 95.7369 47.1565C96.893 46.0004 97.5015 44.6009 97.5015 42.8972V28.6588C97.5015 27.0768 96.893 25.7381 95.7369 24.6429C94.5808 23.5476 93.1813 23 91.4775 23C89.8347 23 88.4352 23.5476 87.2791 24.6429C86.123 25.7381 85.5145 27.0768 85.5145 28.6588V42.8972ZM123.97 135.568C123.97 137.211 124.518 138.611 125.613 139.828L135.592 149.685C138.148 152.241 141.008 152.241 144.172 149.685C145.267 148.65 145.754 147.312 145.754 145.547C145.754 143.904 145.206 142.566 144.172 141.47L133.888 131.309C132.793 130.274 131.394 129.788 129.751 129.788C128.047 129.788 126.708 130.335 125.613 131.431C124.518 132.526 123.97 133.925 123.97 135.568ZM123.97 58.8393C123.97 60.543 124.518 62.0034 125.613 63.2203C126.708 64.3156 128.108 64.8632 129.751 64.8632C131.394 64.8632 132.793 64.3156 133.888 63.2203L144.172 52.9371C145.267 51.9027 145.754 50.564 145.754 48.8603C145.754 47.1565 145.145 45.757 143.989 44.6618C142.833 43.5665 141.433 42.958 139.73 42.958C138.148 42.958 136.748 43.5665 135.592 44.7226L125.613 54.6408C124.518 55.7361 123.97 57.1356 123.97 58.8393ZM139.669 97.4167C139.669 99.0596 140.217 100.398 141.373 101.494C142.529 102.589 143.989 103.076 145.754 103.076H156.037C157.68 103.076 159.079 102.528 160.235 101.433C161.392 100.337 162 98.9988 162 97.4167C162 95.6522 161.452 94.1918 160.296 93.0966C159.14 92.0013 157.741 91.3928 156.098 91.3928H145.815C144.05 91.3928 142.59 91.9404 141.433 93.0966C140.277 94.131 139.669 95.5913 139.669 97.4167Z" fill="#FFDB4C"/>
</svg>
