<svg width="180" height="180" viewBox="0 0 180 180" fill="none" xmlns="http://www.w3.org/2000/svg">
<path d="M17 93.9442C17 102.766 20.1176 110.328 26.2864 116.696C32.4552 123.064 40.0169 126.446 48.839 126.712C49.6349 126.712 50.0329 126.314 50.0329 125.584V116.696C50.0329 115.966 49.6349 115.568 48.839 115.568C43.2008 115.303 38.3586 112.981 34.3788 108.736C30.3326 104.491 28.3426 99.516 28.3426 93.8778C28.3426 88.2397 30.1999 83.3975 33.9808 79.285C37.7617 75.1724 42.4048 72.9172 47.9103 72.4529L51.4259 71.9885C52.2882 71.9885 52.7525 71.5906 52.7525 70.8609L53.2168 67.4117C53.9465 60.1816 56.9314 54.0791 62.3042 49.1706C67.677 44.2621 73.9785 41.8079 81.2749 41.8079C88.505 41.8079 94.8065 44.2621 100.246 49.1043C105.685 53.9465 108.736 59.9826 109.532 67.1464L110.063 70.9273C110.063 71.7232 110.461 72.1212 111.19 72.1212H121.936C127.972 72.1212 133.08 74.2438 137.391 78.5553C141.703 82.8005 143.825 87.908 143.825 93.8778C143.825 99.516 141.835 104.491 137.789 108.736C133.743 112.981 128.967 115.236 123.329 115.568C122.4 115.568 121.936 115.966 121.936 116.696V125.584C121.936 126.314 122.4 126.712 123.329 126.712C129.166 126.579 134.473 124.987 139.315 122.002C144.157 119.017 148.004 115.037 150.79 110.063C153.576 105.088 154.969 99.715 154.969 93.9442C154.969 87.908 153.51 82.4025 150.657 77.494C155.566 73.1162 158.882 67.4117 160.74 60.3806L161.867 55.6047C161.934 55.5384 162 55.3394 162 55.0741C162 54.6098 161.668 54.2118 160.939 54.0128L156.892 52.8852C153.974 52.0229 151.387 50.7626 149.132 49.1043C146.876 47.446 145.086 45.5887 143.759 43.5325C142.432 41.4762 141.504 39.4199 140.84 37.231C140.177 35.1084 139.845 32.9858 139.845 30.9295C139.845 29.1386 140.044 27.215 140.509 25.2251L141.238 21.1125C141.371 20.5156 141.106 19.9849 140.31 19.6532L135.003 18.0613C132.085 17.3317 129.365 17 126.712 17C124.258 17 121.803 17.2653 119.283 17.8623C116.762 18.4593 114.175 19.3216 111.456 20.5819C108.736 21.8422 106.149 23.5668 103.629 25.8884C101.108 28.21 98.919 30.8632 97.0618 33.9808C91.6889 31.7919 86.4488 30.6642 81.2749 30.6642C71.9222 30.6642 63.5645 33.5828 56.3344 39.4199C49.1043 45.2571 44.3948 52.6862 42.3385 61.7735C34.9094 63.6308 28.807 67.5444 24.0974 73.4478C19.3879 79.4176 17 86.2498 17 93.9442ZM59.3856 121.074C59.3856 122.666 59.9163 123.992 60.9776 125.054C62.0389 126.181 63.2992 126.712 64.8911 126.712C66.4831 126.712 67.8097 126.181 68.871 125.054C69.9323 123.926 70.4629 122.599 70.4629 121.074C70.4629 119.614 69.9323 118.288 68.871 117.226C67.8097 116.165 66.4831 115.634 64.8911 115.634C63.3655 115.634 62.0389 116.165 60.9776 117.226C59.9163 118.288 59.3856 119.548 59.3856 121.074ZM59.3856 145.218C59.3856 146.744 59.9163 148.004 60.9776 149.065C62.0389 150.127 63.3655 150.657 64.8248 150.657C66.4167 150.657 67.7434 150.127 68.8047 149.132C69.866 148.07 70.3966 146.81 70.3966 145.218C70.3966 143.626 69.866 142.366 68.8047 141.305C67.7434 140.243 66.4167 139.779 64.8248 139.779C63.2328 139.779 61.9725 140.31 60.9112 141.305C59.9163 142.3 59.3856 143.626 59.3856 145.218ZM80.6116 133.942C80.6116 135.534 81.1423 136.86 82.2036 137.855C83.2649 138.917 84.5915 139.447 86.0508 139.447C87.6427 139.447 88.9694 138.917 90.097 137.855C91.2246 136.794 91.7553 135.467 91.7553 133.942C91.7553 132.35 91.2246 131.023 90.097 129.896C88.9694 128.768 87.6427 128.171 86.0508 128.171C84.5915 128.171 83.3312 128.768 82.2036 129.896C81.0759 131.023 80.6116 132.35 80.6116 133.942ZM80.6116 109.797C80.6116 111.389 81.1423 112.65 82.2036 113.645C83.2649 114.706 84.5915 115.236 86.0508 115.236C87.6427 115.236 89.0357 114.706 90.097 113.711C91.1583 112.716 91.7553 111.389 91.7553 109.797C91.7553 108.272 91.2246 106.945 90.097 105.817C88.9694 104.69 87.6427 104.159 86.0508 104.159C84.5915 104.159 83.2649 104.69 82.2036 105.817C81.1423 106.945 80.6116 108.272 80.6116 109.797ZM80.6116 158.285C80.6116 159.745 81.1423 161.005 82.2036 162.066C83.3312 163.194 84.5915 163.725 86.0508 163.725C87.6427 163.725 88.9694 163.194 90.097 162.133C91.2246 161.071 91.7553 159.811 91.7553 158.219C91.7553 156.627 91.2246 155.301 90.097 154.173C88.9694 153.045 87.6427 152.448 86.0508 152.448C84.5915 152.448 83.3312 153.045 82.2036 154.173C81.2086 155.367 80.6116 156.76 80.6116 158.285ZM102.103 121.074C102.103 122.666 102.634 123.992 103.761 125.054C104.889 126.115 106.149 126.712 107.741 126.712C109.333 126.712 110.593 126.181 111.655 125.054C112.716 123.926 113.247 122.599 113.247 121.074C113.247 119.614 112.716 118.288 111.655 117.226C110.593 116.165 109.333 115.634 107.741 115.634C106.149 115.634 104.889 116.165 103.761 117.226C102.634 118.288 102.103 119.548 102.103 121.074ZM102.103 145.218C102.103 146.744 102.634 148.004 103.695 149.065C104.756 150.127 106.083 150.657 107.675 150.657C109.267 150.657 110.527 150.127 111.588 149.065C112.65 148.004 113.114 146.744 113.114 145.152C113.114 143.56 112.583 142.3 111.588 141.238C110.527 140.177 109.267 139.713 107.675 139.713C106.083 139.713 104.756 140.243 103.695 141.238C102.634 142.3 102.103 143.626 102.103 145.218ZM106.613 39.8179C108.67 36.236 111.588 33.4501 115.236 31.4602C118.885 29.4703 122.666 28.4753 126.579 28.409C127.574 28.409 128.304 28.4753 128.768 28.5416V30.5979C128.768 37.032 130.493 43.0682 133.942 48.7726C137.391 54.4771 142.233 58.7886 148.336 61.7735C147.274 64.1615 145.616 66.5494 143.295 68.871C137.391 63.6308 130.294 61.0439 121.87 61.0439H119.813C118.022 52.8852 113.645 45.8541 106.613 39.8179Z" fill="#98C0CD"/>
</svg>
