<svg width="180" height="180" viewBox="0 0 180 180" fill="none" xmlns="http://www.w3.org/2000/svg">
<path d="M17 89.8579C17 80.0067 18.9497 70.6686 22.7465 61.6383C26.5434 52.608 31.7768 44.9118 38.2417 38.4469C44.7065 31.9821 52.5054 26.7486 61.5357 22.8492C70.566 18.9497 80.0067 17 89.7553 17H101.454C103.096 17.4105 103.814 18.4366 103.814 19.8733L104.327 28.9035C104.737 41.9359 109.355 53.0185 118.385 62.1514C127.416 71.2843 138.293 76.2099 151.12 76.723L159.535 77.4413C161.177 77.4413 161.998 78.2622 161.998 79.8015V89.8579C162.1 102.993 158.919 115.204 152.454 126.39C145.989 137.575 137.267 146.4 126.082 152.967C114.999 159.432 102.788 162.716 89.6527 162.716C79.6989 162.716 70.1555 160.766 61.1252 156.969C52.095 153.172 44.3987 147.939 37.9338 141.474C31.469 135.009 26.3381 127.21 22.5413 118.283C18.9497 109.252 17 99.8117 17 89.8579ZM35.7789 89.8579C35.7789 97.6568 37.3181 105.045 40.3966 112.023C43.4751 118.898 47.5798 124.748 52.608 129.468C57.6363 134.188 63.3828 137.883 69.9503 140.551C76.4151 143.321 83.0852 144.655 89.858 144.655C95.8097 144.655 101.864 143.526 107.919 141.166C113.973 138.806 119.617 135.522 124.85 131.315C130.084 127.108 134.496 121.772 138.293 115.204C142.09 108.637 144.45 101.556 145.579 93.7574C128.852 90.2684 115.41 83.0852 105.353 72.2078C95.2967 61.3305 89.4475 48.606 87.9082 33.8292C78.057 34.4449 69.232 37.4207 61.1252 42.8594C53.1211 48.2981 46.8615 55.1734 42.449 63.588C38.0365 72.0026 35.7789 80.725 35.7789 89.8579Z" fill="#7924E6"/>
</svg>
