<svg width="180" height="180" viewBox="0 0 180 180" fill="none" xmlns="http://www.w3.org/2000/svg">
<path d="M17 104.863C17 113.721 20.0638 121.381 26.2582 127.708C32.4525 134.102 39.9789 137.499 48.904 137.966C49.7033 137.966 50.1029 137.566 50.1029 136.767V127.908C50.1029 127.109 49.7033 126.709 48.904 126.709C43.1759 126.443 38.3803 124.178 34.384 119.915C30.3877 115.653 28.3895 110.657 28.3895 104.863C28.3895 99.3344 30.2545 94.5388 33.9844 90.4093C37.7143 86.3463 42.3767 83.9485 47.9715 83.2825L51.435 83.0161C52.3009 83.0161 52.7671 82.6164 52.7671 81.8172L53.2334 78.2205C53.966 71.0271 56.9633 64.966 62.3583 60.1704C67.7533 55.3082 74.0808 52.9104 81.3408 52.9104C88.6008 52.9104 94.9283 55.3748 100.39 60.237C105.852 65.0992 108.915 71.0937 109.715 78.2871L110.181 82.0836C110.181 82.8829 110.581 83.3491 111.38 83.3491H122.17C128.098 83.3491 133.16 85.4805 137.489 89.7432C141.819 94.006 143.95 99.068 143.95 104.863C143.95 110.657 141.952 115.653 137.955 119.915C133.959 124.178 129.097 126.443 123.435 126.709C122.636 126.709 122.17 127.109 122.17 127.908V136.767C122.17 137.566 122.57 137.966 123.435 137.966C129.297 137.766 134.625 136.167 139.487 133.17C144.35 130.173 148.213 126.176 151.01 121.181C153.808 116.186 155.206 110.724 155.206 104.929C155.206 99.1346 153.674 93.7395 150.677 88.6109C155.872 83.6821 159.269 77.9541 160.934 71.4267L161.867 66.5645C161.933 66.4979 162 66.3647 162 66.0983C162 65.6321 161.667 65.2324 160.934 65.0326L157.138 63.9003C153.341 62.8346 150.078 60.9697 147.413 58.4387C144.683 55.9077 142.751 53.1768 141.619 50.3794C140.486 47.5154 139.887 44.718 139.887 41.8539C139.887 39.9224 140.153 38.0574 140.62 36.1925L141.486 32.1295C141.619 31.4635 141.352 30.9306 140.62 30.5976L135.291 28.9991C132.294 28.333 129.497 28 126.832 28C124.435 28 121.97 28.2664 119.373 28.8659C116.842 29.4653 114.177 30.3312 111.446 31.5301C108.716 32.729 106.051 34.4607 103.454 36.7919C100.856 39.1231 98.6582 41.7207 96.7933 44.7846C91.3983 42.7198 86.203 41.7207 81.2742 41.7207C71.8829 41.7207 63.4906 44.6513 56.2306 50.5126C48.9706 56.3739 44.2416 63.8337 42.1768 72.892C34.7836 74.6238 28.7226 78.4869 23.9936 84.4814C19.3978 90.3427 17 97.203 17 104.863ZM56.5636 110.724C56.5636 113.255 57.4961 115.453 59.3611 117.251C61.226 119.05 63.4906 119.915 66.1548 119.915C68.819 119.915 71.017 119.05 72.8153 117.251C74.6137 115.453 75.4796 113.322 75.4796 110.724C75.4796 108.992 74.6803 106.728 73.1484 103.93C71.6165 101.133 70.1511 98.9348 68.819 97.4028C68.0864 96.6036 67.2205 95.6711 66.0882 94.5388L63.757 97.2696C61.9587 99.2012 60.2935 101.532 58.7616 104.197C57.2297 106.861 56.5636 108.992 56.5636 110.724ZM76.4786 137.299C76.4786 141.695 78.0106 145.359 81.0078 148.356C84.0717 151.353 87.735 152.819 91.9977 152.819C96.3937 152.819 100.057 151.287 103.054 148.289C106.051 145.226 107.583 141.562 107.583 137.299C107.583 133.636 105.785 129.174 102.255 123.978C99.3243 120.115 96.4603 116.785 93.7295 114.054C93.1966 113.655 92.5972 113.188 91.9977 112.522L90.4658 114.054C87.8682 116.452 85.0041 119.782 81.9403 123.912C80.3418 126.11 79.0763 128.441 78.0106 130.839C76.9449 133.303 76.4786 135.435 76.4786 137.299ZM86.2696 92.8737C86.2696 94.6054 86.9357 96.0041 88.2012 97.2696C89.4667 98.5351 90.9986 99.068 92.8636 99.068C94.5953 99.068 95.994 98.4685 97.2595 97.2696C98.4584 96.0707 99.0579 94.6054 99.0579 92.8737C99.0579 90.0096 96.9931 86.4129 92.8636 82.0836L91.1984 83.8819C89.9995 85.214 88.8672 86.746 87.8682 88.5443C86.7359 90.3427 86.2696 91.808 86.2696 92.8737ZM106.584 50.7791C108.915 46.9825 111.913 44.1185 115.509 42.187C119.106 40.2554 122.969 39.2563 126.966 39.2563C127.765 39.2563 128.364 39.3229 128.764 39.3895V41.3877C128.764 47.7818 130.496 53.8429 134.026 59.6376C137.556 65.4322 142.351 69.7616 148.546 72.7588C147.48 75.2898 145.815 77.5544 143.55 79.6192C137.356 74.5572 130.296 72.0262 122.17 72.0262H119.972C117.974 63.3009 113.511 56.2407 106.584 50.7791Z" fill="#7598BD"/>
</svg>
