<svg width="180" height="180" viewBox="0 0 180 180" fill="none" xmlns="http://www.w3.org/2000/svg">
<path d="M17 93.0188C17 100.395 19.1929 106.974 23.5788 112.822C27.9647 118.67 33.6797 122.59 40.7237 124.717L36.3378 135.947C36.1384 136.878 36.4707 137.343 37.3346 137.343H51.4226L44.9766 160.668H46.9038L72.8868 127.84C73.1526 127.508 73.1526 127.176 72.9533 126.843C72.7539 126.511 72.4216 126.378 71.9565 126.378H57.4698L73.95 95.6105C74.4152 94.6801 74.1494 94.1485 73.0862 94.1485H53.4161C52.8181 94.1485 52.3529 94.4808 51.8877 95.0788L44.7773 114.217C39.9927 113.021 36.072 110.429 32.9487 106.442C29.8254 102.455 28.297 98.0028 28.297 93.0852C28.297 87.5697 30.1577 82.7851 33.9455 78.665C37.7333 74.5449 42.385 72.2191 47.9005 71.5545L51.3561 71.0229C52.22 71.0229 52.6852 70.6242 52.6852 69.8932L53.1503 66.4377C53.8813 59.2608 56.8717 53.2136 62.2544 48.3625C67.637 43.5115 73.95 41.0527 81.1934 41.0527C88.3703 41.0527 94.6833 43.5115 100.132 48.3625C105.582 53.2136 108.705 59.2608 109.502 66.3712L109.967 70.2919C109.967 71.0229 110.366 71.4216 111.164 71.4216H121.929C127.976 71.4216 133.093 73.5481 137.412 77.7346C141.732 81.9212 143.858 87.038 143.858 92.9523C143.858 98.6008 141.865 103.518 137.878 107.638C133.89 111.758 129.039 114.084 123.258 114.55C122.461 114.55 121.995 114.948 121.995 115.679V124.85C121.995 125.647 122.394 126.046 123.258 126.046C129.106 125.846 134.422 124.252 139.273 121.261C144.124 118.271 147.978 114.284 150.769 109.3C153.56 104.316 154.956 98.8666 154.956 93.0188C154.956 87.2374 153.494 81.8547 150.57 76.7379C155.82 71.6874 159.275 65.9061 160.937 59.3272L161.867 54.5426C161.934 54.4762 162 54.2768 162 54.0775C162 53.6123 161.668 53.28 160.937 53.0807L157.215 51.8845C153.428 50.8213 150.171 48.9606 147.513 46.4354C144.789 43.9102 142.862 41.1192 141.732 38.2617C140.602 35.3378 140.004 32.4138 140.004 29.4899C140.004 27.7621 140.203 25.9679 140.536 24.1737L141.466 20.1201C141.732 19.4555 141.466 18.9239 140.536 18.5917C139.14 17.9936 137.147 17.462 134.555 16.8639C131.963 16.2658 129.438 16 126.913 16C124.521 16 122.062 16.2658 119.47 16.8639C116.945 17.462 114.287 18.3258 111.562 19.5885C108.838 20.7846 106.18 22.5788 103.588 24.9047C100.996 27.2305 98.8034 29.8886 96.9427 33.0119C91.4936 31.0183 86.1774 30.0215 81.1269 30.0215C71.7571 30.0215 63.3841 32.9455 56.1407 38.7269C48.8973 44.5083 44.1792 51.951 42.1192 61.055C34.7429 62.7828 28.6957 66.637 23.9111 72.6178C19.3923 78.4656 17 85.3103 17 93.0188ZM70.8268 158.275C70.8268 159.339 71.159 160.402 71.8236 161.332C72.4881 162.329 73.4849 162.994 74.8139 163.326C75.5449 163.459 76.2094 163.525 76.8075 163.525C79.5321 163.525 81.1934 162.13 81.8579 159.339L97.275 100.927C97.6737 99.3318 97.5408 97.9363 96.8098 96.6072C96.0788 95.2782 94.9491 94.4143 93.4872 94.0156C91.9588 93.5504 90.4968 93.6833 89.1677 94.4143C87.8387 95.1453 86.9083 96.2085 86.5096 97.6705L71.0926 156.415C70.8932 157.079 70.8268 157.677 70.8268 158.275ZM98.5376 138.207C98.5376 139.27 98.8698 140.333 99.5344 141.264C100.199 142.194 101.196 142.925 102.591 143.324C102.791 143.324 103.123 143.324 103.588 143.39C104.053 143.456 104.452 143.456 104.651 143.456C107.176 143.456 108.771 142.061 109.436 139.27L119.404 100.927C119.802 99.3318 119.67 97.8698 118.872 96.5408C118.141 95.2782 117.011 94.4143 115.483 94.0156C113.955 93.5504 112.493 93.6833 111.164 94.4143C109.835 95.1453 108.971 96.2085 108.572 97.7369L98.604 136.412C98.604 137.077 98.5376 137.675 98.5376 138.207ZM106.778 38.9927C108.971 35.2049 111.895 32.3474 115.616 30.3538C119.271 28.3602 123.192 27.3634 127.312 27.3634C128.109 27.3634 128.774 27.3634 129.106 27.4299V29.5564C129.106 35.9358 130.834 41.983 134.289 47.698C137.745 53.4129 142.596 57.7324 148.709 60.7892C147.513 63.5802 145.786 65.9061 143.46 67.8996C137.346 62.6499 130.236 60.0582 122.062 60.0582H119.935C118.075 51.6852 113.689 44.7076 106.778 38.9927Z" fill="#354D64"/>
</svg>
