<svg width="180" height="180" viewBox="0 0 180 180" fill="none" xmlns="http://www.w3.org/2000/svg">
<path d="M17 124.998C17 126.35 17.4702 127.467 18.4694 128.348C19.4686 129.289 20.7029 129.7 22.1135 129.7H131.495C132.906 129.7 134.081 129.23 135.022 128.348C136.021 127.408 136.491 126.291 136.491 124.998C136.491 123.588 136.021 122.353 135.081 121.413C134.14 120.414 132.906 119.944 131.495 119.944H22.1135C20.7029 119.944 19.5274 120.414 18.5282 121.413C17.529 122.412 17 123.646 17 124.998ZM32.3405 106.719C32.3405 108.13 32.8695 109.246 33.8687 110.187C34.6915 111.245 35.8083 111.774 37.3364 111.774H146.718C148.07 111.774 149.187 111.304 150.127 110.304C151.068 109.305 151.479 108.13 151.479 106.719C151.479 105.367 151.009 104.192 150.127 103.31C149.246 102.428 148.07 101.958 146.718 101.958H37.3364C35.9258 101.958 34.7503 102.428 33.8099 103.31C32.8107 104.25 32.3405 105.367 32.3405 106.719ZM33.2221 92.4952V92.2014C32.987 93.083 33.2221 93.4944 33.9274 93.4944H42.3912C42.7438 93.4944 43.0965 93.2006 43.5079 92.6128C44.9185 89.5565 46.9757 87.0879 49.7381 85.1483C52.5006 83.2087 55.557 82.0919 58.8484 81.8568L61.9635 81.3866C62.6688 81.3866 63.0803 81.034 63.0803 80.3287L63.4329 77.3899C64.0795 71.0421 66.7244 65.811 71.4264 61.5204C76.1285 57.2885 81.7122 55.1726 88.1188 55.1726C94.4078 55.1726 99.9915 57.2885 104.694 61.4616C109.396 65.6347 112.158 70.8658 112.805 77.1548L113.216 80.505C113.216 81.2103 113.627 81.5629 114.45 81.5629H123.737C127.499 81.5629 130.966 82.5621 134.023 84.6193C137.079 86.6177 139.43 89.3214 140.899 92.6128C141.311 93.2006 141.722 93.4944 142.193 93.4944H150.539C151.244 93.4944 151.538 93.083 151.42 92.2014C150.127 88.9099 149.246 86.8528 148.717 85.9711C152.949 82.1507 155.946 77.096 157.533 70.8658L158.532 66.9866C158.709 66.6339 158.65 66.2812 158.473 66.0461C158.297 65.811 158.062 65.6347 157.768 65.6347L154.124 64.3416C148.893 62.8135 144.896 59.7571 142.134 55.0551C139.371 50.353 138.666 45.3571 139.959 40.0085L140.723 36.5995C141.017 36.0705 140.782 35.6003 139.959 35.2476L135.022 33.8958C128.615 32.3088 122.268 32.8378 116.096 35.424C109.925 38.0101 105.105 42.1832 101.578 47.8844C96.9351 46.0624 92.4094 45.1807 88.1188 45.1807C79.9489 45.1807 72.7195 47.7669 66.3129 52.8804C59.9064 57.9939 55.8508 64.5767 53.97 72.5703C49.0328 73.7458 44.6834 76.0968 40.9218 79.6821C37.1601 83.2674 34.6915 87.5581 33.2221 92.4952ZM42.5087 142.925C42.5087 144.335 43.0377 145.452 44.0369 146.393C45.0361 147.451 46.2116 147.98 47.5047 147.98H157.122C158.473 147.98 159.649 147.509 160.589 146.51C161.53 145.511 162 144.335 162 142.925C162 141.573 161.53 140.456 160.589 139.516C159.649 138.575 158.473 138.164 157.122 138.164H47.5634C46.1528 138.164 44.9773 138.634 44.0369 139.516C43.0377 140.456 42.5087 141.573 42.5087 142.925ZM110.16 53.1742C112.217 49.824 114.979 47.1791 118.447 45.3571C121.915 43.535 125.559 42.7709 129.438 43.1236C129.027 49.2363 130.437 54.9963 133.552 60.3449C136.726 65.6935 141.076 69.6315 146.601 72.2176C145.719 74.2747 144.25 76.3907 142.193 78.5066C136.785 74.0396 130.614 71.8649 123.737 71.8649H121.856C119.975 64.1653 116.096 57.9351 110.16 53.1742Z" fill="#B1E8B0"/>
</svg>
