<svg width="180" height="180" viewBox="0 0 180 180" fill="none" xmlns="http://www.w3.org/2000/svg">
<path d="M17 128.147C17 121.209 19.02 115.149 22.9721 109.792C26.9243 104.434 32.2816 100.746 38.8686 98.6378C41.679 89.0648 47.4755 81.7753 56.3458 76.7693V73.6954C56.3458 60.8728 60.3858 49.6311 68.4658 39.8825C76.5457 30.1339 86.8213 24.0739 99.2047 21.7904C102.366 21.2635 105.528 21 108.69 21H108.953C110.798 21 112.818 21.1757 115.101 21.4391C117.385 21.6148 119.492 21.9661 121.512 22.4052L129.505 24.8643C130.646 25.4791 131.085 26.2695 130.91 27.1478L129.768 33.2956C129.153 36.1938 128.802 39.0042 128.802 41.8147C128.802 44.8886 129.241 48.0503 130.207 51.212C131.173 54.4616 132.578 57.5355 134.598 60.6972C136.618 63.8589 139.165 66.6693 142.591 69.2162C145.928 71.7632 149.88 73.6954 154.271 75.0127L160.507 76.8571C161.473 77.1206 162 77.5597 162 78.4379C162 78.7892 162 78.9649 161.912 79.0527L160.331 85.0249C159.804 87.1327 159.19 89.3283 158.399 91.4361C157.082 95.3005 155.062 99.2526 152.251 103.468C152.251 103.38 152.251 103.38 152.164 103.38C148.299 108.913 143.557 113.568 137.76 117.257C138.99 120.243 139.604 123.844 139.604 128.147C139.604 136.842 136.531 144.219 130.471 150.367C124.411 156.515 117.121 159.589 108.602 159.589H48.4416C39.9225 159.589 32.5451 156.515 26.3095 150.279C20.1617 144.044 17 136.666 17 128.147ZM34.3895 128.147C34.3895 132.099 35.7068 135.437 38.4294 138.247C41.152 141.058 44.4894 142.375 48.4416 142.375H108.602C112.379 142.375 115.628 140.97 118.439 138.159C121.249 135.349 122.566 132.012 122.566 128.147C122.566 124.371 121.161 121.121 118.439 118.311C115.716 115.5 112.379 114.183 108.602 114.183H97.1847C96.2186 114.183 95.516 113.568 94.9891 112.163L94.2865 106.542C93.6717 101.448 91.4761 97.2326 87.6996 93.8952C83.9231 90.5579 79.5318 88.8014 74.4379 88.8014C69.4319 88.8014 65.1284 90.47 61.4397 93.8952C57.7511 97.3204 55.6432 101.536 55.0285 106.542L54.1502 111.373C54.1502 112.69 53.6233 113.305 52.4815 113.305L46.9485 114.007C43.3477 114.359 40.3616 115.852 37.9903 118.486C35.619 121.297 34.3895 124.459 34.3895 128.147ZM73.2962 71.9388H74.3501C82.5179 71.9388 89.7196 74.2223 96.2187 78.7892C102.63 83.3562 107.197 89.504 109.744 97.2326C116.506 97.2326 122.478 99.3404 127.572 103.556C133.632 99.7796 138.111 94.5979 141.01 88.1866C131.876 83.6197 124.762 77.0327 119.668 68.4258C114.574 59.8189 111.939 50.7729 111.939 41.1121V38.0382C111.676 38.0382 111.325 38.0382 110.886 38.0382C110.446 38.0382 110.095 38.0382 109.832 38.0382C104.474 38.0382 99.2925 39.1799 94.2865 41.4634C89.2804 43.7468 85.0648 47.0842 81.6396 51.2998L81.3761 51.1242C76.5457 57.0963 73.911 64.0345 73.2962 71.9388Z" fill="#6A2EB8"/>
</svg>
