<svg width="180" height="180" viewBox="0 0 180 180" fill="none" xmlns="http://www.w3.org/2000/svg">
<path d="M17 112.004C17 104.264 19.3355 97.4574 24.0732 91.4519C28.8109 85.4464 34.8831 81.6429 42.3566 79.9747C43.8914 73.1017 47.0276 67.0962 51.6986 61.9581C56.3695 56.8201 62.0414 53.15 68.5808 50.948C72.7179 49.5467 76.9885 48.8127 81.4593 48.8127C86.8642 48.8127 92.1358 49.8804 97.1404 52.0156C99.0087 48.8794 101.211 46.1436 103.746 43.8748C106.282 41.6061 108.884 39.8044 111.554 38.6033C114.223 37.4022 116.892 36.468 119.428 35.8675C121.963 35.2669 124.499 35 126.901 35C129.437 35 132.173 35.3336 135.109 36.0676L140.58 37.7358C141.514 38.1362 141.781 38.6033 141.514 39.2039L140.58 43.2075C140.113 45.2761 139.913 47.2112 139.913 48.9462C139.913 51.0147 140.247 53.15 140.914 55.2853C141.581 57.4206 142.515 59.4892 143.85 61.5578C145.118 63.6263 146.919 65.428 149.188 67.0962C151.457 68.7644 153.993 70.0322 156.862 70.8997L160.999 72.3677C161.666 72.5679 162 72.9015 162 73.4353C162 73.5688 161.933 73.7023 161.867 73.9024L160.665 78.3732C158.864 85.5799 155.461 91.2517 150.656 95.5223C153.325 100.193 154.793 105.198 154.994 110.469C155.06 110.803 155.06 111.27 155.06 112.004C155.06 117.943 153.592 123.481 150.589 128.553C147.653 133.624 143.583 137.628 138.578 140.564C133.507 143.5 127.969 145.035 122.03 145.035H49.8969C43.9581 145.035 38.4197 143.567 33.3484 140.564C28.277 137.561 24.3401 133.557 21.4041 128.553C18.468 123.548 17 118.01 17 112.004ZM28.4105 112.004C28.4105 117.943 30.5458 123.081 34.8164 127.418C39.087 131.756 44.0916 133.958 49.8969 133.958H122.03C127.969 133.958 133.04 131.822 137.244 127.485C141.448 123.148 143.583 118.01 143.583 112.004C143.583 106.132 141.448 101.127 137.177 96.9236C132.907 92.7198 127.835 90.5845 121.963 90.5845H110.086L109.418 85.5798C108.751 78.8403 105.948 73.035 101.011 68.2973C96.0727 63.5596 90.2006 60.8905 83.4611 60.2899C83.2609 60.2899 82.9273 60.2899 82.4602 60.2232C81.9931 60.1565 81.7262 60.1565 81.4593 60.1565C78.0561 60.1565 74.653 60.8238 71.1832 62.0916V61.9581C66.312 63.8265 62.1749 66.896 58.9052 71.0999C55.5688 75.3037 53.567 80.1082 52.8997 85.5798L52.4326 90.3843L47.8951 90.5845C42.2899 91.2517 37.619 93.5872 33.8822 97.6576C30.1454 101.728 28.4105 106.466 28.4105 112.004ZM106.816 57.8877C113.889 63.96 118.293 71.0331 119.961 79.1072H122.097C130.371 79.1072 137.444 81.7096 143.249 86.9811C145.451 84.9126 147.12 82.5104 148.321 79.8412C142.248 76.9719 137.444 72.5679 133.907 66.6958C130.438 60.8237 128.636 54.618 128.636 48.1454V46.544C128.302 46.4772 127.769 46.4772 127.035 46.4772C123.164 46.4105 119.361 47.3447 115.691 49.4133C112.021 51.4151 109.018 54.2177 106.816 57.8877Z" fill="#B3B3B3"/>
</svg>
