<svg width="180" height="180" viewBox="0 0 180 180" fill="none" xmlns="http://www.w3.org/2000/svg">
<path d="M17 92.6965C17 100.073 19.1929 106.652 23.5788 112.433C27.9647 118.214 33.6797 122.202 40.7236 124.328L36.4042 135.625C36.1384 136.555 36.4042 137.021 37.3346 137.021H51.4226L42.8501 164.798H44.7108L72.8203 127.451C73.0862 127.186 73.0862 126.853 72.9533 126.521C72.7539 126.189 72.4881 126.056 72.0229 126.056H57.5362L73.95 95.2217C74.4152 94.2914 74.1494 93.7597 73.0862 93.7597H53.4161C52.8181 93.7597 52.3529 94.092 51.9542 94.7565L44.8437 113.895C40.1256 112.699 36.2049 110.107 33.0151 106.12C29.8254 102.133 28.297 97.6805 28.297 92.7629C28.297 87.2474 30.1577 82.4628 33.9455 78.3427C37.7333 74.2891 42.385 71.8968 47.9005 71.2322L51.4226 70.7671C52.2864 70.7671 52.7516 70.3684 52.7516 69.5709L53.2168 66.1818C53.9478 59.0049 56.9381 52.9577 62.3208 48.1067C67.7035 43.2556 74.0165 40.7969 81.2599 40.7969C88.5032 40.7969 94.8162 43.2556 100.265 48.1067C105.714 52.9577 108.771 59.0049 109.569 66.1154L110.034 69.9032C110.034 70.7006 110.433 71.1658 111.164 71.1658H121.929C127.976 71.1658 133.093 73.2923 137.412 77.4788C141.732 81.6653 143.858 86.7822 143.858 92.63C143.858 98.2785 141.865 103.196 137.878 107.316C133.89 111.436 129.039 113.762 123.258 114.161C122.461 114.161 121.995 114.559 121.995 115.423V124.461C121.995 125.258 122.394 125.657 123.258 125.657C132.096 125.391 139.605 122.002 145.786 115.623C151.966 109.177 155.022 101.535 155.022 92.6965C155.022 86.9151 153.561 81.5324 150.637 76.4156C155.687 71.4981 159.076 65.7167 160.671 59.0049L161.934 54.4861C162 54.4197 162 54.2868 162 54.021C162 53.4893 161.668 53.1571 161.003 52.9577L156.883 51.828C153.095 50.6983 149.839 48.8376 147.181 46.246C144.523 43.6543 142.662 40.9298 141.533 38.1388C140.403 35.3477 139.871 32.5567 139.938 29.7657C139.938 27.905 140.137 26.0443 140.602 24.1172L141.333 20.0636C141.466 19.3991 141.2 18.8674 140.403 18.5352L135.087 16.9403C131.963 16.3422 129.239 16.01 126.846 16.01C124.388 15.9435 121.863 16.2093 119.337 16.8074C116.812 17.339 114.154 18.2694 111.429 19.4655C108.705 20.6617 106.113 22.4559 103.588 24.7153C101.063 26.9747 98.8698 29.6328 97.0092 32.6896C91.4936 30.6296 86.2438 29.6328 81.3263 29.6328C71.9565 29.6328 63.5834 32.5567 56.3401 38.4046C49.0967 44.2524 44.3786 51.6951 42.3185 60.7327C34.9423 62.4605 28.895 66.3147 24.1104 72.2955C19.3923 78.2098 17 85.0544 17 92.6965ZM80.7282 133.033C80.7282 134.628 81.2599 135.957 82.3231 136.954C83.3863 138.017 84.7154 138.549 86.1774 138.549C87.7722 138.549 89.1013 138.017 90.231 136.954C91.3607 135.891 91.8923 134.562 91.8923 133.033C91.8923 131.438 91.3607 130.109 90.231 128.98C89.1013 127.85 87.7722 127.252 86.1774 127.252C84.7154 127.252 83.4528 127.85 82.3231 128.98C81.1934 130.109 80.7282 131.438 80.7282 133.033ZM80.7282 108.845C80.7282 110.439 81.2599 111.702 82.3231 112.699C83.3863 113.762 84.7154 114.294 86.1774 114.294C87.7722 114.294 89.1677 113.762 90.231 112.765C91.2942 111.768 91.8923 110.439 91.8923 108.845C91.8923 107.316 91.3607 105.987 90.231 104.857C89.1013 103.728 87.7722 103.196 86.1774 103.196C84.6489 103.196 83.3863 103.728 82.3231 104.857C81.2599 105.987 80.7282 107.316 80.7282 108.845ZM80.7282 157.422C80.7282 158.883 81.2599 160.146 82.3231 161.209C83.4528 162.339 84.7154 162.871 86.1774 162.871C87.7722 162.871 89.1013 162.339 90.231 161.276C91.3607 160.213 91.8923 158.95 91.8923 157.355C91.8923 155.76 91.3607 154.431 90.231 153.301C89.1013 152.172 87.7722 151.574 86.1774 151.574C84.7154 151.574 83.4528 152.172 82.3231 153.301C81.2599 154.498 80.7282 155.893 80.7282 157.422ZM102.192 120.142C102.192 121.736 102.724 123.065 103.854 124.129C104.984 125.192 106.246 125.79 107.841 125.79C109.369 125.79 110.698 125.258 111.762 124.129C112.825 122.999 113.357 121.67 113.357 120.142C113.357 118.68 112.825 117.35 111.762 116.287C110.698 115.224 109.436 114.692 107.841 114.692C106.313 114.692 104.984 115.224 103.854 116.287C102.724 117.35 102.192 118.613 102.192 120.142ZM102.192 144.33C102.192 145.859 102.724 147.121 103.787 148.185C104.851 149.248 106.18 149.779 107.775 149.779C109.369 149.779 110.632 149.248 111.695 148.185C112.758 147.121 113.224 145.859 113.224 144.264C113.224 142.669 112.692 141.406 111.695 140.343C110.632 139.28 109.369 138.815 107.775 138.815C106.18 138.815 104.851 139.346 103.787 140.343C102.724 141.406 102.192 142.735 102.192 144.33ZM106.711 38.7368C108.904 35.0155 111.895 32.158 115.616 30.1644C119.337 28.1708 123.258 27.174 127.312 27.174H128.774V29.3005C128.774 33.5535 129.505 37.6736 131.033 41.6607C132.561 45.6479 134.754 49.3028 137.811 52.6919C140.802 56.081 144.39 58.7391 148.51 60.7327C147.38 63.2579 145.719 65.5173 143.46 67.5773C137.412 62.394 130.302 59.8024 122.062 59.8024H119.869C117.942 51.4293 113.556 44.3853 106.711 38.7368Z" fill="#508495"/>
</svg>
