<svg width="180" height="180" viewBox="0 0 180 180" fill="none" xmlns="http://www.w3.org/2000/svg">
<path d="M17 120.497C17 121.939 17.5191 123.092 18.5573 123.957C19.5378 124.938 20.6913 125.457 22.0756 125.457H77.0994C78.426 125.457 79.5796 124.996 80.5024 124.015C81.4252 123.035 81.8866 121.881 81.8866 120.497C81.8866 119.113 81.4252 117.959 80.5024 116.979C79.5796 115.998 78.4837 115.537 77.0994 115.537H22.0756C20.6913 115.537 19.5378 116.056 18.4996 117.036C17.5191 118.017 17 119.17 17 120.497ZM32.2267 103.021C32.2267 104.347 32.7458 105.443 33.784 106.366C34.7068 107.289 35.8604 107.75 37.2446 107.75H92.3262C93.7104 107.75 94.8063 107.289 95.7291 106.424C96.652 105.501 97.0557 104.405 97.0557 103.021C97.0557 101.636 96.5943 100.483 95.6714 99.5601C94.7486 98.5796 93.6527 98.1181 92.2685 98.1181H37.2446C35.8604 98.1181 34.7068 98.5796 33.7263 99.5601C32.6881 100.541 32.2267 101.694 32.2267 103.021ZM38.8019 89.5819C38.8019 89.9857 39.2056 90.2164 39.9554 90.2164H48.1456C48.6647 90.2164 49.0684 89.928 49.4722 89.4089C50.7411 86.2944 52.7597 83.6989 55.5282 81.6225C58.2391 79.5461 61.2959 78.3926 64.6412 78.1619L67.7558 77.7582C68.4479 77.7582 68.794 77.4121 68.794 76.72L69.1977 73.7784C69.8321 67.5493 72.4853 62.3007 77.1571 58.0903C81.829 53.8799 87.3659 51.7458 93.7104 51.7458C100.055 51.7458 105.592 53.8222 110.264 58.0326C114.936 62.1854 117.646 67.434 118.281 73.7784L118.742 77.066C118.742 77.7582 119.088 78.1619 119.723 78.1619H129.066C134.315 78.1619 138.814 80.0076 142.505 83.6412C146.197 87.2749 148.042 91.6583 148.042 96.8492C148.042 101.982 146.197 106.366 142.505 110.057C138.814 113.749 134.315 115.594 129.066 115.594H89.2116C88.5772 115.594 88.2311 115.94 88.2311 116.575V124.534C88.2311 125.226 88.5772 125.572 89.2116 125.572H129.066C134.315 125.572 139.102 124.303 143.543 121.708C147.984 119.17 151.445 115.652 154.041 111.268C156.636 106.885 157.905 102.098 157.905 96.9069C157.905 92.8118 157.04 89.0052 155.367 85.3138C159.808 79.4885 162 73.2017 162 66.3381C162 60.8588 160.616 55.7832 157.905 51.1114C155.194 46.4395 151.503 42.7482 146.831 40.0374C142.159 37.3266 137.084 36 131.604 36C122.837 36 115.397 39.2299 109.456 45.6321C104.496 43.2096 99.3051 42.0561 93.7681 42.0561C88.4041 42.0561 83.3286 43.2096 78.599 45.459C73.8695 47.7084 69.8898 50.9383 66.6599 55.0334C63.43 59.1285 61.2383 63.8003 60.1424 69.0489C55.0668 70.2025 50.6834 72.5095 46.9344 75.9702C43.1854 79.4308 40.5322 83.6412 39.0903 88.4861L38.8019 89.5819ZM42.3779 138.319C42.3779 139.646 42.897 140.799 43.8775 141.664C44.8003 142.587 45.9539 143.049 47.3381 143.049H102.477C103.862 143.049 105.015 142.587 105.938 141.722C106.861 140.857 107.38 139.703 107.38 138.319C107.38 136.935 106.918 135.781 105.938 134.801C104.957 133.82 103.804 133.359 102.477 133.359H47.3381C46.0115 133.359 44.858 133.878 43.8775 134.858C42.897 135.839 42.3779 136.992 42.3779 138.319ZM117.358 51.3998C121.222 47.6508 126.01 45.7474 131.604 45.7474C137.314 45.7474 142.159 47.7661 146.139 51.7458C150.119 55.7255 152.137 60.5704 152.137 66.2804C152.137 69.9141 151.214 73.317 149.311 76.4893C143.659 70.9523 136.911 68.2414 129.009 68.2414H127.163C125.837 61.897 122.549 56.3023 117.358 51.3998Z" fill="#854DCB"/>
</svg>
