<svg width="180" height="180" viewBox="0 0 180 180" fill="none" xmlns="http://www.w3.org/2000/svg">
<path d="M17 92.909C17 101.727 20.1161 109.352 26.2821 115.716C32.4481 122.081 40.0064 125.463 48.8244 125.861C49.62 125.861 50.0178 125.463 50.0178 124.733V115.849C50.0178 115.12 49.62 114.722 48.8244 114.722C43.1225 114.39 38.2826 112.136 34.3045 107.893C30.3265 103.65 28.3374 98.6772 28.3374 92.909C28.3374 87.406 30.1939 82.6324 33.973 78.5217C37.7522 74.4111 42.3932 72.0905 47.8962 71.4275L51.4101 71.1623C52.2721 71.1623 52.7362 70.7645 52.7362 70.0352L53.2003 66.455C53.9296 59.2945 56.9794 53.2611 62.3498 48.4211C67.7202 43.5812 74.085 41.128 81.3118 41.128C88.5386 41.128 94.8372 43.5812 100.274 48.4211C105.711 53.2611 108.76 59.2945 109.556 66.455L110.086 70.2341C110.086 71.0297 110.484 71.4275 111.214 71.4275H121.954C127.855 71.4275 133.027 73.5491 137.336 77.7924C141.646 82.0357 143.834 87.0745 143.834 92.909C143.834 98.6772 141.845 103.65 137.866 107.893C133.888 112.136 129.048 114.39 123.347 114.722C122.418 114.722 121.954 115.12 121.954 115.849V124.733C121.954 125.463 122.418 125.861 123.347 125.861C132.165 125.595 139.657 122.214 145.756 115.849C151.922 109.418 154.972 101.793 154.972 92.9753C154.972 87.1408 153.447 81.7041 150.464 76.6653C155.834 71.8253 159.282 66.0571 160.939 59.2945L161.867 54.5208C161.934 54.4545 162 54.3219 162 54.0567C162 53.5926 161.668 53.1948 160.939 52.9959L157.226 51.8025C153.447 50.7416 150.198 48.8852 147.546 46.2995C144.828 43.7138 142.905 40.9954 141.778 38.1445C140.651 35.2936 140.054 32.4426 140.054 29.658C139.922 28.1994 140.121 26.3429 140.585 24.2213L141.513 20.177C141.778 19.5139 141.513 18.9835 140.585 18.5857L135.347 16.9945C132.364 16.3315 129.579 16 126.927 16C124.407 16 121.888 16.2652 119.369 16.8619C116.783 17.4586 114.131 18.3205 111.412 19.5802C108.694 20.7737 106.042 22.5638 103.456 24.8843C100.871 27.2048 98.6827 29.8569 96.8262 32.973C91.3896 30.984 86.2181 29.9895 81.3781 29.9895C72.0297 29.9895 63.6758 32.9067 56.449 38.7412C49.2222 44.5757 44.5149 52.0014 42.4595 61.0846C35.1001 62.8084 29.0668 66.5876 24.2931 72.5546C19.3868 78.4554 17 85.2844 17 92.909ZM53.8633 138.259C53.8633 139.386 54.1948 140.447 54.9241 141.508C55.6534 142.568 56.7142 143.298 58.1728 143.695C59.6978 144.16 61.1564 144.027 62.4161 143.43C63.7421 142.767 64.604 141.574 65.0681 139.717L74.5492 100.799C74.947 99.1413 74.7481 97.6164 74.0187 96.3566C73.2231 95.0306 72.096 94.235 70.5711 93.9035C69.1125 93.4394 67.7202 93.572 66.3941 94.3676C65.0681 95.0969 64.1399 96.224 63.6758 97.749L54.1285 136.866C54.1285 136.933 54.0622 137.132 53.9959 137.463C53.9296 137.795 53.8633 138.06 53.8633 138.259ZM71.1678 158.613C71.1678 159.674 71.4993 160.668 72.1623 161.663C72.8253 162.658 73.8198 163.321 75.1459 163.718C75.8752 163.917 76.4056 163.984 76.7371 163.984C79.6543 163.984 81.4444 162.657 82.1737 160.072L97.0914 100.865C97.4892 99.2739 97.3566 97.8153 96.6273 96.5555C95.898 95.2958 94.7709 94.4339 93.3123 93.9698C91.7874 93.5057 90.3288 93.6383 88.9364 94.4339C87.5441 95.2295 86.6822 96.2903 86.3507 97.749L71.3667 156.889C71.3667 156.956 71.3667 157.221 71.3004 157.685C71.1678 158.083 71.1678 158.414 71.1678 158.613ZM98.749 138.789C98.749 141.176 100.141 142.767 102.926 143.695C103.854 143.961 104.517 144.093 104.915 144.093C105.644 144.093 106.44 143.961 107.235 143.629C108.628 143.099 109.49 141.773 109.821 139.784L119.302 100.865C119.7 99.2739 119.567 97.8816 118.772 96.5555C118.043 95.2958 116.915 94.4339 115.39 93.9698C113.866 93.5057 112.407 93.6383 111.015 94.4339C109.622 95.1632 108.827 96.2903 108.495 97.8153L99.0142 136.933C98.8816 137.994 98.749 138.657 98.749 138.789ZM106.572 39.0064C108.694 35.161 111.545 32.2437 115.258 30.1884C118.904 28.1994 122.816 27.2048 126.927 27.2711C127.722 27.2711 128.319 27.2711 128.717 27.3374V29.3265C128.651 35.7577 130.308 41.791 133.822 47.5592C137.27 53.2611 142.176 57.6369 148.475 60.6205C147.016 63.6703 145.226 65.9908 143.237 67.7147C137.137 62.6758 130.043 60.2227 121.822 60.2227H119.766C117.976 51.8025 113.6 44.7746 106.572 39.0064Z" fill="#446688"/>
</svg>
