<svg width="180" height="180" viewBox="0 0 180 180" fill="none" xmlns="http://www.w3.org/2000/svg">
<path d="M17 121.025C17 122.481 17.5458 123.694 18.6374 124.664C19.729 125.756 20.9419 126.302 22.3367 126.302H57.9954C59.5721 126.302 60.967 126.847 62.1798 128C63.3927 129.152 63.9992 130.547 63.9992 132.123C63.9992 133.7 63.3927 135.034 62.1798 136.247C60.967 137.46 59.5721 138.066 58.056 138.066C56.5399 138.066 55.1451 137.46 53.9322 136.247C52.78 135.216 51.5671 134.67 50.1723 134.67C48.7775 134.67 47.5646 135.156 46.5943 136.187C45.624 137.217 45.1389 138.43 45.1389 139.886C45.1389 141.341 45.624 142.554 46.5943 143.524C49.7478 146.678 53.5684 148.255 57.9954 148.255C62.4831 148.255 66.3643 146.678 69.4571 143.585C72.6106 140.432 74.1874 136.672 74.1874 132.184C74.1874 127.696 72.6106 123.815 69.4571 120.662C66.3036 117.508 62.4831 115.871 57.9954 115.871H22.3367C20.8812 115.871 19.6683 116.356 18.5767 117.387C17.4852 118.418 17 119.631 17 121.025ZM17 102.772C17 104.166 17.5458 105.319 18.6374 106.289C19.5471 107.259 20.7599 107.744 22.3367 107.744H88.9845C93.4722 107.744 97.2928 106.168 100.446 103.014C103.6 99.8607 105.177 96.0401 105.177 91.6131C105.177 87.1861 103.6 83.3655 100.446 80.212C97.2928 77.0585 93.4722 75.5424 88.9845 75.5424C84.3756 75.5424 80.555 77.0585 77.5228 80.0907C76.6131 81.1217 76.128 82.3952 76.128 83.9113C76.128 85.3668 76.6131 86.519 77.5228 87.4893C78.4325 88.4596 79.6453 88.8841 81.1614 88.8841C82.6775 88.8841 83.8904 88.4596 84.8607 87.4893C86.013 86.3371 87.4078 85.7913 88.9845 85.7913C90.5613 85.7913 91.8954 86.3371 93.1083 87.4893C94.2606 88.6416 94.867 90.0364 94.867 91.6131C94.867 93.1899 94.2606 94.6453 93.1083 95.7976C91.9561 96.9498 90.5613 97.5562 88.9845 97.5562H22.3367C20.8812 97.5562 19.6683 98.0414 18.5767 99.0723C17.4852 100.164 17 101.377 17 102.772ZM33.0707 88.5809C33.0707 89.0661 33.4345 89.3086 34.1016 89.3086H42.7737C43.2589 89.3086 43.6834 89.0054 44.1079 88.4596C45.5027 85.1848 47.5646 82.4559 50.4755 80.2727C53.3258 78.0895 56.5399 76.8766 60.1179 76.634L63.2714 76.2095C63.9992 76.2095 64.4237 75.8457 64.4237 75.0573L64.8482 72.0251C65.5153 65.4755 68.3049 59.9569 73.2171 55.5905C78.1292 51.1635 83.9511 48.9803 90.5613 48.9803C97.1715 48.9803 102.933 51.1635 107.845 55.5299C112.757 59.8963 115.547 65.4149 116.274 72.0251L116.699 75.4818C116.699 76.2095 117.063 76.5734 117.79 76.5734H127.675C133.133 76.5734 137.803 78.514 141.684 82.3346C145.565 86.1552 147.506 90.7641 147.506 96.1614C147.506 101.559 145.565 106.228 141.684 110.049C137.803 113.869 133.133 115.81 127.675 115.81H85.7704C85.1033 115.81 84.7394 116.174 84.7394 116.902V125.21C84.7394 125.938 85.1033 126.302 85.7704 126.302H127.675C133.073 126.302 138.106 124.967 142.715 122.238C147.324 119.57 150.963 115.871 153.631 111.262C156.299 106.653 157.634 101.619 157.634 96.1614C157.634 91.6738 156.785 87.55 155.087 83.9113C159.696 77.8469 162 71.1154 162 63.7168C162 59.4111 161.151 55.2873 159.453 51.3455C157.755 47.4036 155.511 44.0682 152.661 41.2179C149.811 38.3676 146.414 36.1238 142.533 34.4864C138.652 32.849 134.407 32 130.101 32C120.762 32 112.878 35.5174 106.571 42.4914C101.841 40.005 96.4438 38.7921 90.5006 38.7921C81.9498 38.7921 74.3693 41.4605 67.7591 46.7365C61.1489 52.0125 57.0251 58.8047 55.2058 67.0523C50.051 68.2652 45.5027 70.7516 41.5002 74.5115C37.4977 78.2714 34.7687 82.6984 33.192 87.7319V87.9745C33.1313 88.2777 33.0707 88.5203 33.0707 88.5809ZM115.122 48.3739C119.489 44.2501 124.461 42.1882 130.162 42.1882C136.105 42.1882 141.138 44.3107 145.384 48.5558C149.629 52.8009 151.751 57.8344 151.751 63.7168C151.751 67.4161 150.72 71.1154 148.658 74.936C142.836 69.1142 135.862 66.2639 127.615 66.2639H125.614C124.158 59.775 120.701 53.7712 115.122 48.3739Z" fill="#8ED98C"/>
</svg>
