<svg width="180" height="180" viewBox="0 0 180 180" fill="none" xmlns="http://www.w3.org/2000/svg">
<path d="M17 92.8859C17 101.724 20.0568 109.366 26.2369 115.679C32.417 121.992 39.9262 125.448 48.8309 125.847C49.6283 125.847 50.027 125.448 50.027 124.717V115.812C50.027 115.081 49.6283 114.682 48.8309 114.682C43.116 114.417 38.3313 112.157 34.3442 107.904C30.357 103.651 28.3634 98.6673 28.3634 92.8859C28.3634 87.3703 30.2241 82.5857 33.9455 78.4657C37.6668 74.412 42.3185 72.0197 47.9006 71.3552L51.4225 71.1558C52.2864 71.1558 52.7516 70.7571 52.7516 69.9597L53.2168 66.3712C53.9478 59.1943 56.9381 53.1471 62.3208 48.2961C67.7035 43.445 74.0165 40.9863 81.2599 40.9863C88.4368 40.9863 94.7498 43.445 100.199 48.2961C105.648 53.1471 108.705 59.1943 109.502 66.3712L110.034 70.2255C110.034 70.9565 110.433 71.3552 111.164 71.3552H121.863C127.777 71.3552 132.894 73.4817 137.213 77.7347C141.533 81.9877 143.725 87.0381 143.725 92.8195C143.725 98.6009 141.732 103.585 137.745 107.838C133.758 112.091 128.907 114.35 123.258 114.616C122.394 114.616 121.929 115.015 121.929 115.746V124.65C121.929 125.381 122.394 125.78 123.258 125.78C132.096 125.514 139.605 122.125 145.719 115.746C151.899 109.366 154.956 101.724 154.956 92.8195C154.956 87.1045 153.494 81.7883 150.637 76.8043C155.886 71.8868 159.275 66.039 160.937 59.3937L161.801 54.8749C161.934 54.8084 162 54.6755 162 54.4097C162 53.9446 161.668 53.5458 160.937 53.3465L157.215 52.2168C153.428 51.0871 150.238 49.2264 147.513 46.5683C144.855 43.9102 142.928 41.1856 141.798 38.2617C140.669 35.4042 140.137 32.4803 140.137 29.4899C140.071 27.8951 140.27 26.1008 140.669 24.2401L141.599 20.3859C141.798 19.7878 141.466 19.3226 140.669 18.9239L135.352 17.2626C132.561 16.4652 129.637 16 126.647 16C124.321 16 121.929 16.2658 119.47 16.8639C117.011 17.462 114.42 18.3258 111.695 19.522C108.971 20.7181 106.379 22.5124 103.787 24.8382C101.262 27.1641 99.0028 29.8222 97.1421 32.9455C92.1581 30.819 86.9083 29.6893 81.3928 29.6893C72.0229 29.6893 63.6499 32.6132 56.4065 38.3946C49.1632 44.176 44.5115 51.6187 42.4514 60.7227C35.0752 62.4505 29.028 66.2383 24.2434 72.2191C19.4588 78.1998 17 85.2438 17 92.8859ZM53.4161 139.602C54.0142 140.998 55.011 141.995 56.473 142.593C57.7356 143.257 59.1311 143.324 60.593 142.726C62.055 142.194 63.0518 141.197 63.5834 139.735C64.2479 138.273 64.3144 136.878 63.7163 135.416C63.1847 134.02 62.1879 133.023 60.7259 132.492C59.3969 131.827 58.0014 131.761 56.6059 132.359C55.2104 132.957 54.1471 133.954 53.4826 135.416C52.8845 136.545 52.8181 137.941 53.4161 139.602ZM57.5362 120.796C57.5362 121.793 57.8685 122.79 58.5995 123.786C59.3304 124.783 60.3272 125.514 61.6563 125.913C63.3841 126.577 64.846 126.577 66.1086 125.913C67.3712 125.248 68.2351 123.986 68.7667 122.125L74.6146 100.794C75.0797 99.1325 74.8804 97.6705 74.083 96.3415C73.2855 95.0124 72.0894 94.215 70.4945 93.8827C69.0325 93.4175 67.637 93.5504 66.308 94.3479C64.9789 95.0789 64.115 96.2086 63.6499 97.737L57.802 119.135C57.802 119.268 57.7356 119.533 57.6691 119.932C57.6027 120.264 57.5362 120.597 57.5362 120.796ZM69.9629 158.01C69.9629 158.807 70.0958 159.472 70.3616 159.937C70.9597 161.399 71.9565 162.396 73.352 162.927C73.95 163.259 74.681 163.392 75.5449 163.392C75.9436 163.392 76.6082 163.259 77.5385 162.994C79.0669 162.462 80.1302 161.465 80.7282 160.003C81.3928 158.541 81.3928 157.079 80.7282 155.617C80.0637 154.155 79.0669 153.159 77.7379 152.561C76.4088 151.962 75.0798 151.962 73.6842 152.561C72.4216 153.092 71.4913 153.89 70.8932 154.953C70.2287 156.083 69.9629 157.079 69.9629 158.01ZM74.8804 140.4C74.8804 142.925 76.2759 144.653 79.1334 145.583C79.7314 145.782 80.2631 145.915 80.6618 145.915C81.3928 145.915 82.1902 145.716 82.9876 145.384C84.516 144.852 85.5793 143.589 86.1109 141.596L97.0756 100.927C97.4743 99.3318 97.3414 97.9363 96.6104 96.6073C95.8795 95.3447 94.7498 94.4808 93.2878 94.0156C91.7594 93.5504 90.2974 93.6833 88.9684 94.4808C87.6393 95.2118 86.709 96.3415 86.3103 97.8699L75.1462 138.871C74.9468 139.469 74.8804 140.001 74.8804 140.4ZM97.7401 137.609C97.7401 138.473 97.8731 139.137 98.2053 139.669C98.7369 140.998 99.7337 141.995 101.129 142.593C101.927 142.925 102.658 143.124 103.455 143.124C103.854 143.124 104.518 142.991 105.449 142.726C106.911 142.127 107.907 141.197 108.439 139.802C108.971 138.34 108.971 136.944 108.439 135.615C107.907 134.286 106.977 133.289 105.648 132.625C104.186 131.96 102.724 131.894 101.329 132.492C99.8666 133.023 98.8698 134.087 98.2053 135.549C97.8731 136.08 97.7401 136.745 97.7401 137.609ZM102.525 120.597C102.525 121.66 102.857 122.723 103.522 123.654C104.186 124.584 105.183 125.315 106.512 125.714C107.642 125.847 108.24 125.913 108.306 125.913C111.031 125.913 112.692 124.584 113.423 121.859L119.204 100.794C119.603 99.1989 119.47 97.8034 118.739 96.4744C118.008 95.2118 116.879 94.3479 115.417 93.8827C113.888 93.4175 112.426 93.5504 111.164 94.3479C109.835 95.0789 108.971 96.2086 108.506 97.737L102.724 118.803C102.591 119.401 102.525 119.999 102.525 120.597ZM106.844 39.192C108.904 35.4042 111.828 32.4803 115.483 30.4867C119.138 28.4931 123.059 27.4963 127.179 27.5628C127.91 27.5628 128.508 27.6292 128.84 27.6957V29.7557C128.84 36.2681 130.568 42.3153 134.023 48.0303C137.479 53.7452 142.33 58.0646 148.444 60.9886C147.181 63.9125 145.52 66.2383 143.46 68.099C137.612 62.8492 130.435 60.2576 121.863 60.2576H119.736C118.008 51.951 113.755 44.907 106.844 39.192Z" fill="#5E88B2"/>
</svg>
